<svg width="73" height="71" viewBox="0 0 73 71" fill="none" xmlns="http://www.w3.org/2000/svg">
<path d="M61.4173 21.0432V31.9038C63.6762 32.0693 65.7564 32.2093 67.8341 32.3788C68.8268 32.4602 69.8683 32.4454 70.7856 32.766C71.3647 32.9687 72.0853 33.6801 72.1357 34.2204C72.1843 34.744 71.5683 35.5163 71.039 35.8539C70.5154 36.1871 69.7356 36.1578 69.0622 36.2092C66.5571 36.4005 64.0501 36.5594 61.4337 36.7381V45.4091C63.8159 45.6736 66.246 45.9378 68.6745 46.2168C69.299 46.2883 69.9171 46.4122 70.5397 46.5005C71.4101 46.625 72.0692 47.0436 72.1275 47.965C72.1944 49.0182 71.3978 49.4381 70.5385 49.5973C69.5033 49.7659 68.4601 49.8797 67.413 49.9384C65.4343 50.0916 63.453 50.2155 61.3082 50.363C61.26 50.6814 61.1821 51.2327 61.0923 51.7815C60.6671 54.4244 59.27 56.3971 56.7692 57.3406C54.9724 58.0183 53.0495 58.3742 51.1774 58.8411C50.5809 58.9574 49.9789 59.0433 49.3737 59.0983C49.3737 61.1347 49.3762 63.1052 49.3737 65.076C49.3718 66.0176 49.4644 66.9749 49.327 67.8973C49.095 69.4548 47.9715 70.3835 46.6762 70.2653C45.4153 70.1499 44.3672 68.987 44.4381 67.472C44.5172 65.7471 44.8164 64.0323 45.0134 62.3127C45.1272 61.3254 45.2318 60.3371 45.3601 59.167H35.8513C35.9525 61.2642 36.0823 63.439 36.151 65.6157C36.2146 66.4987 36.1625 67.3862 35.996 68.2557C35.9103 68.7574 35.6418 69.2096 35.2423 69.525C34.8429 69.8404 34.3407 69.9967 33.8328 69.9636C33.3499 69.9762 32.8796 69.8086 32.5135 69.4935C32.1474 69.1784 31.9117 68.7383 31.8523 68.2589C31.7034 67.2288 31.6754 66.1848 31.7687 65.1482C31.9055 63.114 32.1353 61.0861 32.3462 58.8471H22.9385C22.9218 59.1938 22.8736 59.6894 22.8783 60.1846C22.9004 62.3893 22.9833 64.5946 22.9556 66.7984C22.9313 68.7096 21.9916 69.9258 20.7215 69.8807C19.4376 69.8353 18.6029 68.5965 18.7463 66.6484C18.9039 64.5048 19.2191 62.3742 19.4587 60.2369C19.5271 59.6251 19.5716 59.0103 19.6327 58.332C18.8566 58.1674 18.1937 58.0483 17.5421 57.8847C15.1593 57.2829 13.5333 55.8965 12.9798 53.4207C12.6825 52.092 12.3887 50.7627 12.0883 49.4349C11.9998 49.0428 11.8945 48.6544 11.8715 48.5633C8.91619 48.5633 6.14595 48.5656 3.37603 48.5602C3.00822 48.5575 2.64081 48.5357 2.27526 48.4949C0.891401 48.348 0.121293 47.6974 0.0967048 46.6691C0.0727474 45.6604 0.808181 44.9294 2.20339 44.7516C3.65943 44.5659 5.12934 44.4877 6.59389 44.3695C8.15112 44.2434 9.70868 44.1274 11.3324 44.0017C11.1786 40.8875 11.027 37.8172 10.87 34.6394C9.69449 34.6394 8.55967 34.6394 7.42484 34.6394C5.90323 34.6413 4.38067 34.6781 2.86064 34.6299C2.28639 34.5984 1.72126 34.4724 1.18803 34.257C0.377576 33.9452 -0.215687 33.2709 0.0749539 32.4331C0.34873 31.7957 0.853289 31.2854 1.48749 31.0045C2.12489 30.7334 2.9322 30.8783 3.66258 30.8052C6.10277 30.5593 8.54138 30.2971 11.1836 30.02V21.9589C8.5357 21.6913 5.78943 21.4142 3.0422 21.1356C2.77989 21.1226 2.51895 21.0895 2.2617 21.0366C1.40081 20.8096 0.668534 20.4263 0.647413 19.3867C0.625662 18.3149 1.35794 17.8619 2.24689 17.7941C3.81169 17.6744 5.38877 17.6466 6.95862 17.6756C8.63154 17.7071 10.3026 17.8484 12.0707 17.947C12.9489 15.8155 13.3199 13.2271 15.6126 12.0702C17.6856 11.0239 19.9628 10.3806 22.3525 9.4831C22.5634 7.54854 22.8124 5.26849 23.0596 2.98938C23.2487 1.25562 23.7559 0.517045 24.7356 0.557709C25.6813 0.596798 26.1794 1.39117 26.3008 3.10759C26.4442 5.13799 26.5665 7.16965 26.7005 9.23944C28.13 9.23944 29.4776 9.26182 30.824 9.23282C32.1306 9.20477 33.4357 9.12437 34.683 9.0692C34.8851 6.66085 35.0695 4.33635 35.2801 2.01437C35.3535 1.20455 35.525 0.361018 36.5356 0.286309C37.6323 0.20498 37.9954 1.08917 38.1061 1.92264C38.4144 4.24714 38.6105 6.58803 38.8756 9.18268C39.9379 9.22871 41.2782 9.30878 42.6195 9.33841C43.9246 9.36741 45.2303 9.34472 46.6063 9.34472C46.7446 7.31559 46.8647 5.34824 47.0205 3.38373C47.0781 2.65618 47.0939 1.88197 47.3672 1.22976C47.4824 0.988885 47.6513 0.777673 47.8609 0.612351C48.0705 0.447029 48.3153 0.33204 48.5764 0.276227C49.0206 0.252585 49.5221 0.735192 49.9395 1.07123C50.1099 1.27322 50.2052 1.52791 50.2093 1.79215C50.4615 4.23612 50.6938 6.682 50.9548 9.36366C56.3323 8.95953 60.0823 11.1191 60.5936 17.0057C63.366 17.0057 65.9768 16.9934 68.5875 17.0139C69.3125 17.0196 70.1246 16.9427 70.738 17.2346C71.3026 17.5044 71.9806 18.203 72.0093 18.7442C72.0389 19.3031 71.4637 20.0748 70.9356 20.431C70.4259 20.7746 69.6432 20.7797 68.973 20.8077C66.4641 20.9158 63.9527 20.9694 61.4173 21.0432ZM56.8547 36.2133H57.1368C57.1368 34.4297 57.1904 32.6446 57.1261 30.8632C56.9685 26.5191 56.9247 22.1629 56.5193 17.8386C56.1356 13.7482 55.5376 13.3273 51.3271 13.2324C44.2997 13.0748 37.2679 12.8542 30.2424 12.9664C26.7033 13.0231 23.1598 13.657 19.6482 14.2166C17.6937 14.528 16.3215 15.7225 16.0981 17.8733C15.9899 18.9119 15.8213 19.9484 15.7857 20.9896C15.6864 23.8714 15.6558 26.7561 15.5738 29.6389C15.3847 36.3564 15.3078 43.0676 16.7607 49.6856C17.4624 52.8817 17.5204 53.09 20.7146 53.2199C30.0949 53.6032 39.4802 53.8772 48.8646 54.1067C50.4373 54.0952 52.0032 53.8985 53.53 53.5206C56.2892 52.9217 56.8153 52.2531 56.8417 49.4327C56.8849 45.0261 56.8547 40.6195 56.8547 36.2133Z" fill="#221F1A"/>
<path d="M23.0725 34.1253C23.0725 31.3992 23.0454 28.6718 23.0804 25.947C23.1119 23.4475 23.8868 22.4401 26.3786 21.9102C27.9155 21.5804 29.4804 21.3981 31.0519 21.3658C35.246 21.2923 39.4424 21.3377 43.6378 21.3421C44.005 21.3448 44.3717 21.3707 44.7357 21.4197C47.2021 21.7377 48.4958 22.7061 48.9531 25.1602C49.4513 27.7287 49.7328 30.3345 49.7945 32.9501C49.8468 36.3464 49.5316 39.7477 49.4209 43.1481C49.3677 44.7841 48.4453 45.6608 46.9937 46.0041C45.621 46.3402 44.2249 46.5721 42.8172 46.6976C37.6913 47.1074 32.5505 47.3596 27.434 46.6721C24.207 46.2389 23.36 45.0212 23.4454 41.8263C23.5142 39.2616 23.4593 36.6934 23.4593 34.1265L23.0725 34.1253ZM45.8734 42.3922C45.8734 39.465 45.8566 36.592 45.8778 33.7202C45.8992 30.8078 46.0521 27.8885 45.41 24.983C43.9246 24.8862 42.5704 24.7176 41.2174 24.7245C36.9249 24.7469 32.6309 24.7825 28.3413 24.9231C26.6242 24.9796 26.541 25.1324 26.6274 26.8053C26.9035 32.1349 27.237 37.4601 27.5469 42.7632C29.6375 43.3625 40.4848 43.1613 45.8734 42.3922Z" fill="#221F1A"/>
</svg>
