<svg width="72" height="71" viewBox="0 0 72 71" fill="none" xmlns="http://www.w3.org/2000/svg">
<path fill-rule="evenodd" clip-rule="evenodd" d="M33.5256 17.5281C36.8727 7.8994 26.0518 -2.64633 16.5607 1.02175C10.1415 3.54355 10.921 3.4518 19.7703 12.4386L19.0366 15.1897C18.1654 18.5826 18.303 18.4451 15.1393 18.7661L12.5716 18.9953C5.69391 12.6679 2.80539 9.36663 0.742095 15.4648C-3.15524 27.2027 8.99527 39.1697 20.9165 35.3641L23.2091 34.6306C30.0867 41.875 31.2789 43.0671 34.9011 47.3313L33.9841 49.7155C32.15 54.5757 35.5429 75.5755 57.4596 69.0188C59.798 68.331 61.3572 67.093 59.248 64.6171C57.4598 62.5079 55.1672 60.3529 51.8201 56.9141C48.4271 51.4578 54.1126 48.9819 57.2763 51.5495C57.9641 52.0997 58.9729 53.1085 60.5777 54.805C69.4727 64.2045 75.2499 54.2547 67.1343 43.5256C61.5863 36.1894 57.7348 34.493 50.3527 36.2353L47.6935 36.8772C47.6476 36.8314 31.6456 22.9844 32.2875 21.0128C32.4709 20.5543 33.0212 18.9953 33.5256 17.5281ZM29.5823 19.4538C28.6195 21.5171 28.5277 21.9756 29.0779 22.6634C34.901 29.9079 48.2895 41.5999 50.6738 41.5999C51.1781 41.5999 52.4161 41.0038 53.379 40.4077C58.6977 37.0147 66.1713 45.3138 66.1713 49.8072C66.1713 55.6761 66.0798 55.9971 62.4576 51.9164C57.5515 46.4142 52.0952 46.5518 49.8027 48.019C46.5014 50.1282 45.5385 58.1979 51.6367 64.0669C54.1585 66.5428 54.021 66.8638 50.5363 66.8638C42.3748 66.8638 37.1018 58.2438 40.5407 50.4033C41.045 49.3028 41.4118 48.1107 41.4118 47.7439C41.4118 45.6806 24.4471 29.7703 25.5475 30.779C24.6305 29.9078 23.2549 29.6328 22.0628 30.0455C10.4167 34.3096 4.59349 26.194 3.85987 23.5346C3.30966 21.4713 3.17215 15.0521 3.67651 15.098C3.85992 15.098 5.23549 16.5652 6.70272 18.3076C9.72889 21.8839 10.7376 22.2966 15.1852 21.7923C21.1916 21.1045 21.8335 19.5455 22.4295 14.181C22.5671 12.8971 22.1544 11.6133 21.2833 10.6505C15.2768 3.95621 14.8182 3.86446 19.1741 3.2684C20.6871 2.90159 35.6805 6.43214 29.5823 19.4538Z" fill="#221F1A"/>
</svg>
