<svg width="66" height="76" viewBox="0 0 66 76" fill="none" xmlns="http://www.w3.org/2000/svg">
<path d="M47.5247 29.6637C41.1969 16.9977 19.8768 19.7849 16.8315 33.6993C14.994 42.0953 22.7418 47.9711 23.7426 55.8335H41.5041C42.0263 53.7312 43.089 51.2308 43.8248 49.6939C45.3541 46.5011 47.5173 44.4141 48.3387 40.8521C49.12 37.4629 49.0296 32.6764 47.5247 29.6637Z" stroke="#221F1A" stroke-width="5" stroke-miterlimit="1.5" stroke-linecap="round" stroke-linejoin="round"/>
<path fill-rule="evenodd" clip-rule="evenodd" d="M23.4172 66.5488C23.4121 64.1227 23.2931 61.6967 23.3352 59.2713C23.3519 58.3108 23.1878 57.1361 24.019 56.4646C25.2328 55.4845 27.0383 55.3418 28.5446 55.3055C31.3678 55.2379 34.2128 55.2617 37.039 55.2675C38.3261 55.2697 40.247 55.0462 41.407 55.6858C42.5112 56.2934 42.7907 57.9498 42.9148 59.0685C43.1529 61.2122 43.7867 65.9992 41.9667 67.6587C40.8205 68.7041 39.0324 68.9227 37.5645 69.1035C33.6705 69.5826 23.423 69.4875 23.4172 66.5488Z" stroke="#221F1A" stroke-width="5" stroke-miterlimit="1.5" stroke-linecap="round" stroke-linejoin="round"/>
<path d="M33.7948 69.3096C33.8266 70.6299 33.8421 71.9572 33.7383 73.2755" stroke="#221F1A" stroke-width="5" stroke-miterlimit="1.5" stroke-linecap="round" stroke-linejoin="round"/>
<path d="M3 49.1515C4.38536 48.4203 5.83219 47.8188 7.23239 47.1194" stroke="#221F1A" stroke-width="5" stroke-miterlimit="1.5" stroke-linecap="round" stroke-linejoin="round"/>
<path d="M3 20.7352C4.54644 21.7172 6.02576 22.8025 7.57573 23.776" stroke="#221F1A" stroke-width="5" stroke-miterlimit="1.5" stroke-linecap="round" stroke-linejoin="round"/>
<path d="M33.5249 9.09539C33.4705 7.15051 33.4825 5.21956 33.5446 3.27539" stroke="#221F1A" stroke-width="5" stroke-miterlimit="1.5" stroke-linecap="round" stroke-linejoin="round"/>
<path d="M57.4629 22.344C59.4042 21.0589 61.4035 19.8516 63.378 18.6182" stroke="#221F1A" stroke-width="5" stroke-miterlimit="1.5" stroke-linecap="round" stroke-linejoin="round"/>
<path d="M54.0762 48.8457C55.5732 50.1873 57.0765 51.5133 58.5254 52.9071" stroke="#221F1A" stroke-width="5" stroke-miterlimit="1.5" stroke-linecap="round" stroke-linejoin="round"/>
</svg>
