<svg width="73" height="60" viewBox="0 0 73 60" fill="none" xmlns="http://www.w3.org/2000/svg">
<path d="M72.0315 27.9045C71.8716 24.9176 71.744 21.8775 71.6201 18.9379C71.4994 16.0751 71.375 13.1148 71.2204 10.2043C70.9971 5.97779 68.8224 2.89868 64.9323 1.29981C63.5588 0.735609 61.8682 0.43726 59.768 0.386919C54.2046 0.254638 48.5477 0.193495 43.0768 0.13405C41.1293 0.112806 39.1821 0.0905745 37.2352 0.0673673C37.1862 0.0267181 37.1246 0.00437898 37.061 0.00434631H32.526C28.8408 0.00434631 25.1559 0.00543749 21.4715 0.00722274C20.7971 0.00722274 20.1206 0.00569749 19.4465 0.00382307C17.4199 -0.00313906 15.324 -0.0089171 13.2628 0.0660597C10.4486 0.168082 8.2816 0.718298 6.44365 1.79796C2.7214 3.98515 0.735856 7.10718 0.54215 11.078C0.440101 13.1691 0.405724 15.2959 0.372685 17.3529L0.351105 18.6408C0.321263 20.3672 0.290084 22.0933 0.257577 23.819C0.152864 29.5055 0.0444214 35.3856 0.00152357 41.1708C-0.0157954 43.4737 0.100374 46.1983 1.09129 48.9451C2.55674 53.0081 5.25983 55.6347 9.35511 56.9751C13.1653 58.193 17.1386 58.8174 21.1368 58.826C31.0752 58.9551 41.4997 59.0161 53.7679 59.0161H56.151C58.4057 59.0544 60.6564 58.8097 62.8505 58.2872C67.8805 56.9941 70.8615 53.8957 71.7104 49.0774C71.9803 47.4429 72.1679 45.7956 72.2721 44.1418C72.6395 39.1237 72.364 34.0384 72.097 29.1199L72.0315 27.9045ZM25.5545 54.45C21.2495 54.4369 16.6496 54.2733 12.1805 53.1717C10.3823 52.7288 9.09612 52.2098 8.06844 51.5077L30.2474 31.0091L30.8666 31.6785C31.4837 32.346 32.1208 33.035 32.7642 33.7179C34.6267 35.6948 36.454 35.8568 38.5136 34.2282C39.3564 33.5623 40.1571 32.8088 40.9314 32.0826C41.2244 31.8068 41.5207 31.5291 41.8213 31.2527L63.5289 53.2726C62.7786 53.8925 61.8716 54.0224 60.9161 54.1592L60.6417 54.1989C59.6154 54.336 58.5805 54.3997 57.5451 54.389L51.4733 54.4109C42.9774 54.4428 34.1937 54.4763 25.5545 54.45ZM59.4464 8.6874C56.1985 11.6343 52.8402 14.6811 49.6377 17.7865C46.442 20.8852 43.3088 24.1327 40.2786 27.2741C39.0244 28.5744 37.7295 29.9171 36.4508 31.227L9.47741 4.64098C9.6705 4.58938 9.86208 4.53727 10.0521 4.4846C10.7875 4.2835 11.4822 4.09301 12.1917 3.95296C15.7197 3.25675 19.3522 3.35143 22.8653 3.44435C23.6499 3.4647 24.4344 3.48484 25.2185 3.49769C26.4117 3.51644 27.6261 3.55641 28.8001 3.59524C29.8197 3.62871 30.8741 3.66352 31.9124 3.68414C34.8324 3.74217 37.7524 3.79787 40.6726 3.85126C46.9847 3.96962 53.5113 4.09239 59.9295 4.24717C60.832 4.29721 61.7288 4.42414 62.6099 4.6266C62.9563 4.69596 63.3152 4.76713 63.6717 4.82925V4.83814C62.2678 6.12748 60.8338 7.42883 59.4459 8.68845L59.4464 8.6874ZM14.0174 41.0286C11.3122 43.6137 8.51794 46.2845 5.81591 49.0137C4.69363 46.3528 4.11198 44.1688 3.93879 41.979C3.45919 35.904 3.65849 29.8571 3.90522 24.1843C4.01793 21.5973 4.06296 18.9661 4.10665 16.4215C4.1365 14.6917 4.1674 12.9029 4.21909 11.1463C4.27238 9.28309 4.8924 7.97574 6.27899 6.82029L27.3549 27.6284C23.0643 32.3817 18.4654 36.7772 14.0158 41.0308L14.0174 41.0286ZM67.1494 48.5593C67.0508 49.0929 66.9189 49.6199 66.7545 50.1367C66.6954 50.3373 66.6362 50.5384 66.5805 50.7392L66.4955 50.7676L44.1548 28.8885C51.8778 20.882 59.2021 14.0536 66.5278 8.02868C66.5592 8.17033 66.5912 8.30821 66.6226 8.44263C66.7532 8.93057 66.8398 9.42914 66.8816 9.93266C67.1286 15 67.33 20.0009 67.4779 23.7921C67.6167 27.3496 67.735 30.8596 67.8299 34.2253C67.9485 38.4869 67.9618 43.5238 67.1478 48.5603L67.1494 48.5593Z" fill="#FFFCF2"/>
</svg>
