<svg width="71" height="70" viewBox="0 0 71 70" fill="none" xmlns="http://www.w3.org/2000/svg">
<path d="M66.8622 28.1737C66.0893 28.188 65.3262 28.1837 64.7133 28.18L64.3062 28.178L60.4378 20.9356C60.6668 20.6677 60.9067 20.3938 61.1517 20.1133C61.8697 19.2925 62.6116 18.4435 63.2986 17.5275C64.1637 16.3749 64.0921 15.0404 63.1123 14.0456L63.0499 13.9821C60.6004 11.494 58.0671 8.92123 55.4613 6.50965C54.7211 5.82452 54.0679 5.5201 53.4146 5.54821C52.7242 5.57889 52.0406 5.99353 51.2646 6.85216C50.703 7.47305 50.1602 8.09423 49.5855 8.75211C49.3977 8.9676 49.2073 9.18513 49.015 9.4048C47.3003 7.66775 45.1523 6.63042 42.122 6.07234C42.122 5.89682 42.1255 5.72306 42.1277 5.55099C42.1349 4.99577 42.1418 4.47159 42.1151 3.93587C41.9606 0.84691 41.0875 0.000860641 38.0524 0H38.0278C36.1276 0 34.1986 0.0670899 32.3333 0.13219C31.446 0.162876 30.5612 0.19408 29.6749 0.21817C28.3123 0.255452 27.4764 1.00655 27.3213 2.33293C27.2199 3.20073 27.1535 4.06751 27.0949 4.83236C27.0762 5.07699 27.0585 5.31061 27.0408 5.52914L20.1885 9.40888C20.0479 9.2368 19.9045 9.05926 19.7591 8.8783C19.2859 8.29239 18.7967 7.6861 18.2671 7.09819C17.51 6.25734 16.7786 5.83238 16.0307 5.79969C15.3019 5.77244 14.5674 6.10566 13.7862 6.83409C11.5574 8.91242 9.43086 10.9893 7.46603 13.0071C5.85758 14.6581 5.78083 16.0471 7.19263 17.9645C7.69586 18.6471 8.25605 19.2923 8.70604 19.8108C8.83714 19.962 8.95995 20.103 9.07101 20.2335L6.01499 28.4642C5.69811 28.4929 5.37636 28.5191 5.05146 28.5455C4.15979 28.6183 3.2378 28.6935 2.32094 28.8168C0.650088 29.0411 -0.000572126 29.7756 3.77438e-07 31.4355C3.77438e-07 34.6389 0.0337724 37.3054 0.101615 39.8271C0.126806 40.7652 0.389579 41.4592 0.883077 41.8894C1.39261 42.3339 2.11655 42.4968 3.09954 42.3858C3.65229 42.3241 4.20333 42.2521 4.75465 42.1799L4.89921 42.1607C4.90267 42.1922 4.91109 42.2229 4.92411 42.2518L8.38003 49.7923C7.93519 50.1341 7.48958 50.4745 7.04323 50.8138C6.55583 51.1855 6.0692 51.5577 5.58335 51.9305C4.16096 53.0261 3.89644 54.275 4.7967 55.6433C6.27204 57.8842 8.00676 60.473 9.92951 62.8364C11.6316 64.9299 13.0121 65.0793 15.4 63.4335C16.3939 62.7481 17.3829 62.0569 18.3794 61.3592L19.5467 60.5433C22.1465 62.6107 24.739 63.5545 27.617 63.5124C27.5907 63.7564 27.5649 63.9884 27.54 64.2118C27.4656 64.8789 27.4012 65.4553 27.3608 66.0438C27.256 67.5833 27.463 68.5388 28.0315 69.1451C28.5857 69.735 29.4897 70 30.9553 70H31.0498C33.0364 69.9851 35.0556 69.9501 37.0081 69.9165C37.8142 69.9022 38.62 69.8887 39.4261 69.8758C40.5502 69.858 41.344 69.5756 41.8552 69.0117C42.3665 68.4479 42.5709 67.6277 42.4775 66.5055C42.4146 65.7341 42.3444 64.9632 42.2812 64.2703L42.2239 63.6434L48.2255 61.1114L48.3497 61.2812C48.5724 61.5852 48.7991 61.8943 49.023 62.2055C49.1349 62.3609 49.244 62.5186 49.353 62.6764C49.5488 62.9594 49.7515 63.2525 49.9699 63.531C51.0451 64.9021 52.2293 65.1929 53.8102 64.4757C54.3309 64.2571 54.821 63.9703 55.267 63.6233C55.7788 63.1972 56.2912 62.7716 56.8047 62.3466C58.8978 60.6112 61.0621 58.8168 63.1189 56.9671C64.0549 56.1251 64.4849 55.4201 64.5138 54.6811C64.5424 53.9277 64.1416 53.156 63.2142 52.1795C62.5369 51.4671 61.8536 50.7608 61.2262 50.1123L60.5964 49.4602L64.559 41.8865C64.7202 41.871 64.8959 41.8546 65.0828 41.8374C65.7083 41.7801 66.4855 41.7075 67.2529 41.6166C68.8894 41.423 69.4719 40.8876 69.8504 39.2306C70.6207 35.8577 70.0221 32.566 69.4156 30.0753C69.1067 28.8059 68.2222 28.1585 66.8622 28.1737ZM60.066 39.8928C59.2307 43.2711 58.0511 45.6256 56.2405 47.527C55.5066 48.2978 55.5332 49.3779 56.3138 50.49C57.0226 51.4998 57.7617 52.4795 58.5443 53.517C58.8222 53.8858 59.1053 54.261 59.3933 54.6464L52.6289 60.0319C52.4405 59.8071 52.2556 59.5851 52.0747 59.366C51.5428 58.7259 51.0408 58.1214 50.5106 57.5272C49.0997 55.9461 48.3594 56.0109 46.5478 57.0534C45.1105 57.8489 43.5968 58.4968 42.0296 58.9875C38.4328 60.1891 38.1623 61.7945 38.1443 64.2964C38.142 64.6136 38.1205 64.9411 38.0976 65.2878C38.0916 65.3756 38.0859 65.4651 38.0801 65.5568H31.4105L31.3741 64.7541C31.3406 64.0062 31.3083 63.2875 31.2719 62.5694C31.1692 60.5556 30.7444 59.8266 28.5628 59.7477C25.2949 59.6299 22.546 58.6717 20.1587 56.8182C19.2504 56.1122 18.1993 56.1712 16.9449 56.9975C16.0098 57.6138 15.0895 58.2501 14.1148 58.9244C13.7574 59.1719 13.3911 59.4248 13.0161 59.6829L8.75273 53.9541C9.01645 53.7327 9.27674 53.5125 9.5336 53.2934C10.2727 52.6653 10.9703 52.0719 11.7048 51.507C12.9168 50.5752 13.0173 50.028 12.2181 48.7174C10.7685 46.34 9.27142 43.4601 9.1572 40.1253C9.1177 38.9573 8.43356 38.3438 7.12481 38.3017C6.35508 38.2767 5.57905 38.2822 4.75436 38.2873C4.4621 38.2893 4.16179 38.2916 3.85035 38.2925L3.55983 32.6807C3.98177 32.6362 4.38997 32.5898 4.78757 32.5448C5.8467 32.4243 6.84858 32.311 7.84188 32.2649C9.06846 32.2075 9.78607 31.5542 9.975 30.3202C10.5257 26.7261 11.5417 23.9407 13.1719 21.5535C13.4383 21.2144 13.5848 20.7964 13.5883 20.3648C13.5918 19.9332 13.4522 19.5126 13.1913 19.1692C12.5906 18.2972 11.9874 17.4279 11.3817 16.5613L10.8255 15.762L16.2863 10.1935C16.5016 10.4038 16.7169 10.6141 16.9324 10.8244C17.5621 11.4402 18.2119 12.0763 18.8631 12.6943C20.1409 13.9057 20.5048 13.7399 21.8384 12.8445C23.5245 11.712 25.3284 10.5367 27.2157 9.70504C28.8388 8.99008 30.2904 8.15935 30.2214 5.87798C30.2294 5.3961 30.2944 4.91688 30.4152 4.45034C30.4541 4.2688 30.4933 4.08239 30.5297 3.88967H38.1365C38.1383 4.04655 38.1414 4.20505 38.1443 4.36479C38.1551 4.93463 38.1663 5.52349 38.1251 6.09992C37.9636 8.34459 38.7133 9.29786 40.799 9.49947C43.0031 9.71284 44.9307 10.6942 47.0453 12.6828C48.1702 13.7399 48.7914 13.9388 50.0372 12.95C50.8673 12.2904 51.6367 11.5944 52.4506 10.8565C52.7296 10.6038 53.0113 10.35 53.2956 10.0952L58.7498 15.8486C58.6213 15.9837 58.4836 16.1267 58.339 16.277C57.7786 16.8609 57.1428 17.5229 56.5139 18.2155C54.8307 20.0701 54.8201 20.7678 56.4458 22.6032C58.1681 24.4978 59.3816 26.8 59.9721 29.2935C60.3016 30.7354 61.1283 31.4366 62.5738 31.5014C63.2677 31.5321 63.9613 31.57 64.7433 31.6116L65.649 31.6597L65.9708 37.6842H65.1249C64.3709 37.6825 63.6905 37.6819 63.0098 37.6874C61.2356 37.7023 60.465 38.2796 60.066 39.8928Z" fill="#FFFCF2"/>
<path d="M37.439 16.8828C34.6309 16.6226 31.801 17.0227 29.1746 18.0512C26.548 19.0797 24.1974 20.7083 22.3099 22.8073C20.4223 24.9062 19.0498 27.4177 18.3016 30.1417C17.5535 32.8658 17.4503 35.7271 18.0004 38.498C19.4391 45.3266 22.9729 49.6462 28.8042 51.7036C30.5234 52.2981 32.3317 52.5915 34.1505 52.5717C35.6639 52.5593 37.1734 52.4125 38.6613 52.1332C48.2794 50.4096 53.575 43.6461 53.5707 33.0878V33.0812C53.4539 29.7783 52.355 26.5853 50.4145 23.9124C47.3585 19.8182 42.9931 17.4529 37.439 16.8828ZM49.0064 37.5244C47.8637 43.2489 44.2595 46.5747 37.9883 47.6918C35.9582 48.0531 33.2952 48.3668 30.7023 47.5825C26.1869 46.2157 23.4764 43.0347 22.4161 37.8585C22.2502 36.9468 22.1416 36.0256 22.0909 35.1005C22.0583 34.6703 22.0259 34.2424 21.9821 33.8157C21.9741 32.0955 22.3129 30.3915 22.9782 28.8055C23.6434 27.2198 24.6215 25.7849 25.8537 24.5869C28.4785 22.0538 32.1657 20.7385 36.2113 20.8664C40.5789 21.0098 44.0391 22.5835 46.4954 25.5411C49.1553 28.7445 49.9768 32.6648 49.0064 37.5244Z" fill="#FFFCF2"/>
</svg>
