<svg width="70" height="70" viewBox="0 0 70 70" fill="none" xmlns="http://www.w3.org/2000/svg">
<path d="M0.2433 34.3448C0.2433 27.7885 0.260915 21.2312 0.232101 14.6762C0.224163 12.8129 0.0621741 10.9508 0.00484034 9.08721C-0.145698 4.16597 3.22702 0.554052 8.46351 0.450912C19.3784 0.235792 30.2922 -0.233385 41.2135 0.139392C42.3693 0.17888 43.5298 0.0978362 44.6847 0.148817C45.3845 0.176553 46.0787 0.290789 46.7508 0.4889C47.0451 0.574335 47.3045 0.752569 47.4903 0.997188C47.6758 1.24181 47.7778 1.53977 47.7814 1.84707C47.8249 2.51394 47.5852 3.10543 46.9875 3.35473C46.2495 3.65861 45.4768 3.86913 44.6874 3.98152C43.9856 4.04818 43.2796 4.04954 42.5778 3.98562C33.4729 3.59428 24.3638 3.64025 15.2562 3.80498C12.7971 3.86203 10.343 4.05761 7.90575 4.39081C6.38038 4.59149 4.98464 5.28109 4.39366 6.89213C4.12807 7.54006 3.98412 8.23157 3.96907 8.93188C4.03845 11.6 4.20081 14.2657 4.33165 16.9324C4.37605 17.8388 4.46364 18.7443 4.47363 19.6508C4.56596 27.9214 4.69003 36.1922 4.71267 44.4634C4.72678 49.6069 4.55563 54.7503 4.52682 59.8943C4.56128 61.2522 4.66927 62.6075 4.85027 63.9539C4.94436 64.8639 5.4489 65.4203 6.3977 65.5157C6.6976 65.5452 6.99423 65.6484 7.29237 65.6486C10.1061 65.6507 12.9208 65.6834 15.7334 65.6192C19.3042 65.537 22.8728 65.2856 26.4436 65.2608C35.1497 65.2019 43.8565 65.209 52.5627 65.2337C55.0269 65.2408 57.4905 65.4046 59.9546 65.4848C60.8649 65.5455 61.7693 65.2962 62.5206 64.7776C63.2721 64.2586 63.8266 63.5004 64.0944 62.6264C64.2026 62.2963 64.2561 61.9506 64.2535 61.6035C64.22 58.9348 63.9959 56.257 64.1488 53.6004C64.6798 44.3788 64.676 35.1514 64.6731 25.922C64.6731 24.964 64.6866 24.0048 64.7425 23.0488C64.7672 22.4947 64.8551 21.9453 65.0047 21.4113C65.0829 21.1149 65.2514 20.8504 65.4869 20.6546C65.7221 20.4587 66.0126 20.3414 66.3178 20.3188C67.0261 20.2363 67.6782 20.4179 67.9811 21.0851C68.2848 21.7166 68.4768 22.3962 68.5488 23.0936C68.7714 26.1598 68.9255 29.2314 69.096 32.3015C69.6302 41.9377 69.0848 51.5609 68.802 61.1874C68.7517 62.1935 68.565 63.188 68.2469 64.1437C67.9576 65.1409 67.4386 66.0565 66.7321 66.8165C66.0259 67.5765 65.1511 68.1597 64.1791 68.5195C62.3006 69.2509 60.3007 69.6172 58.2858 69.5989C51.7953 69.5824 45.3045 69.603 38.8141 69.5951C36.3484 69.5921 33.8819 69.4934 31.4177 69.5361C25.5833 69.6402 19.7503 69.8167 13.9164 69.9369C11.5524 69.9855 9.18441 70.0403 6.82314 69.9566C3.06998 69.8235 0.689005 67.3437 0.639609 63.536C0.512887 53.8061 0.429074 44.0756 0.327931 34.3454L0.2433 34.3448Z" fill="#FFFCF2"/>
<path d="M10.6562 26.1035C14.5755 26.1035 18.4394 26.4426 22.354 26.4426C24.6961 26.4426 27.0381 26.4426 29.3802 26.4426C32.78 26.4426 34.7158 26.8683 38.0298 26.1035" stroke="#FFFCF2" stroke-width="5" stroke-linecap="round"/>
<path d="M13.3691 37.5394C18.9387 37.5394 24.581 37.0869 30.1111 37.0869" stroke="#FFFCF2" stroke-width="5" stroke-linecap="round"/>
<path d="M40.0664 37.5394C45.6359 37.5394 51.2783 37.0869 56.8083 37.0869" stroke="#FFFCF2" stroke-width="5" stroke-linecap="round"/>
<path d="M12.1992 50.8262H55.2668" stroke="#FFFCF2" stroke-width="5" stroke-linecap="round"/>
<path d="M27.4319 41.8674C27.4824 41.4275 27.5731 40.9928 27.7027 40.5694C28.4509 38.4883 29.2023 36.4066 30.0402 34.3609C30.3645 33.6219 30.8 32.9367 31.3313 32.3297C39.8952 22.1492 48.5979 12.0936 58.0503 2.71823C58.436 2.32071 58.8474 1.94871 59.2814 1.60459C60.5104 0.667788 61.7896 0.638089 63.0204 1.58049C63.7699 2.17402 64.4808 2.81489 65.1491 3.49918C66.3281 4.66878 67.4675 5.87785 68.6329 7.06101C69.6714 8.1151 69.4236 9.44239 68.6235 10.3206C67.9799 11.0278 67.2887 11.6908 66.6077 12.3627C58.6842 20.1828 50.6828 27.9259 42.8804 35.8659C40.6593 38.1768 38.1102 40.1465 35.3155 41.7113C33.9507 42.4618 32.547 43.1417 31.1525 43.8368C30.7935 44.0198 30.4163 44.1645 30.0276 44.2691C28.3413 44.7044 27.3772 43.9296 27.4319 41.8674ZM38.2419 35.8709L58.7868 14.5584L55.6731 9.88557C48.6229 17.492 41.6852 24.9764 34.6443 32.5731C35.9065 33.7309 37.1117 34.836 38.2407 35.8709H38.2419ZM58.2197 7.53693L61.9625 11.3207L64.8542 8.7472C63.6064 7.28173 62.4571 5.93151 61.2595 4.52439L58.2197 7.53693ZM32.8317 35.5794C32.4532 36.46 32.1713 37.1162 31.8934 37.7634L33.0328 39.0382L34.771 38.023L32.8317 35.5794Z" fill="#FFFCF2"/>
</svg>
