<svg width="71" height="70" viewBox="0 0 71 70" fill="none" xmlns="http://www.w3.org/2000/svg">
<path d="M45.0971 59.6552C44.5998 62.9721 43.6191 66.0243 40.6844 68.0164C38.6892 69.4124 36.2851 70.1058 33.8509 69.9869C28.2762 69.7243 24.7773 66.6455 23.585 60.8309C23.1052 60.8309 22.5832 60.8158 22.0622 60.8336C16.2465 61.0329 10.4316 61.2476 4.61528 61.425C3.77809 61.4483 2.94122 61.37 2.12289 61.1923C1.55075 61.0562 1.01609 60.7948 0.557958 60.427C0.382473 60.3064 0.239681 60.1446 0.142343 59.9554C0.0450021 59.7664 -0.00381966 59.5562 0.00023324 59.3439C0.00428584 59.1312 0.0611633 58.9231 0.165641 58.738C0.270115 58.5529 0.418962 58.3964 0.598911 58.2826C5.06556 55.1804 6.86445 50.464 8.35076 45.5759C9.53418 41.6833 9.78112 37.6512 9.91034 33.6131C10.073 28.5148 10.8985 23.5701 12.8047 18.7881C15.2872 12.5598 19.7894 8.55897 25.9933 6.33148C26.8807 6.01301 27.3118 5.62686 27.4962 4.66082C28.0925 1.53589 30.0263 0.0184459 33.1968 0.000112645C36.2916 -0.0164464 38.688 1.79373 39.2841 4.72883C39.3241 5.08281 39.4681 5.41712 39.6981 5.68955C39.9281 5.96198 40.2339 6.16042 40.5765 6.25971C45.352 8.08387 48.9763 11.2481 51.6292 15.6188C55.1794 21.4677 57.297 27.8015 58.4561 34.5026C58.8331 36.6813 59.3562 38.8345 59.7954 41.0026C60.8381 46.1477 63.5845 50.0924 68.0373 52.9095C68.8481 53.4444 69.5153 54.1691 69.9803 55.0208C70.6246 56.2056 70.1261 57.4514 68.8372 57.8843C67.628 58.2826 66.3708 58.5177 65.099 58.5836C58.8944 58.9213 52.6857 59.1777 46.4788 59.4707C46.0458 59.4932 45.6152 59.5848 45.0971 59.6552ZM53.5692 38.0968C53.6759 37.828 53.7518 37.7325 53.7405 37.6494C53.6264 36.8214 53.4951 35.9973 53.3739 35.1708C52.4747 29.0344 50.6737 23.2177 47.4921 17.8371C43.7528 11.5131 37.2966 8.3919 30.0968 9.79972C24.8303 10.8293 20.5024 13.4393 18.0345 18.3783C16.9466 20.5567 15.9599 22.8954 15.5372 25.2696C14.8511 29.1252 14.6503 33.0678 14.281 36.9773C14.158 38.2783 14.147 39.59 14.0735 41.1404C27.3741 40.1117 40.541 39.4786 53.5692 38.0968ZM8.18957 57.007C25.7384 55.7677 42.9517 55.4052 60.3594 53.5201C57.2499 50.3227 55.8875 46.5499 54.7778 42.7079L13.6764 44.3047C13.145 48.8557 11.3759 53.0547 8.18957 57.007ZM26.7906 60.576C27.5167 64.0555 30.7619 66.1842 34.5136 65.7942C37.932 65.4394 39.9266 63.342 39.9589 59.8525L26.7906 60.576ZM30.4062 4.95897H35.3945C34.7036 3.58752 33.6183 3.40064 32.4796 3.43819C31.5034 3.47072 30.6685 3.8161 30.4071 4.95897H30.4062Z" fill="#FFFCF2"/>
</svg>
