<svg width="71" height="70" viewBox="0 0 71 70" fill="none" xmlns="http://www.w3.org/2000/svg">
<path d="M9.24143 25.8489C9.24143 24.6392 9.19261 23.753 9.25517 22.8771C9.31555 22.0325 8.90262 21.815 8.16029 21.735C6.65594 21.6128 5.1602 21.4012 3.68096 21.1015C1.50026 20.5963 0.360006 19.3659 0.341236 17.1599C0.307139 13.1557 0.481693 9.14876 0.605259 5.14398C0.639669 4.02156 1.18335 3.07185 2.22506 2.6536C3.60493 2.09959 5.04393 1.40231 6.48386 1.33536C17.3614 0.829836 28.2427 0.36558 39.1281 0.0899812C46.104 -0.086452 53.0907 0.0365187 60.0714 0.121294C61.9987 0.165943 63.9185 0.376806 65.8095 0.751602C68.4206 1.24149 69.4915 2.42616 69.8471 5.03167C70.3423 8.657 70.5472 12.3002 69.8953 15.9283C69.2678 19.4213 67.5447 20.9754 64.0089 21.3211C62.9215 21.4275 61.8244 21.4353 60.7317 21.4882C59.1779 21.5635 59.1332 21.6252 59.4417 23.4158C59.9187 23.4549 60.4264 23.5021 60.9351 23.5368C62.0265 23.6113 63.123 23.6407 64.21 23.7558C68.5683 24.2201 69.8033 25.3099 70.1887 29.645C70.4801 32.6483 70.5251 35.6704 70.3233 38.681C70.0292 42.5616 68.1998 44.2246 64.3552 44.6456C62.3412 44.8665 60.3147 44.9697 58.1613 45.1364C58.2107 46.0727 58.2551 46.928 58.3095 47.945C58.8413 47.9972 59.3419 48.0388 59.8424 48.0964C61.8579 48.3341 63.8903 48.4824 65.8833 48.8472C67.7841 49.1938 69.1011 50.3625 69.4239 52.3433C70.0642 56.2711 70.2907 60.2221 69.5528 64.1612C68.9365 67.4509 67.1731 69.1107 63.7984 69.2915C59.4814 69.5233 55.1563 69.5681 50.8333 69.6238C38.9545 69.7764 27.0749 69.9287 15.1954 69.9991C12.1266 70.0173 9.05498 69.7489 5.98648 69.5784C5.25883 69.5257 4.53683 69.4124 3.82798 69.2399C1.16553 68.6383 0.0262357 67.4471 0.00339951 64.6989C-0.027883 60.9019 0.163886 57.1023 0.284949 53.3049C0.324991 52.0568 0.902763 51.0288 2.06803 50.5833C3.78576 49.9239 5.56888 49.4344 7.64916 48.769C7.71767 48.2744 7.84154 47.38 7.98012 46.3771C6.72069 46.1822 5.59295 46.0562 4.48712 45.8262C1.99516 45.3082 0.804846 44.0907 0.735399 41.554C0.630289 37.7062 0.71913 33.8516 0.756669 30.0001C0.768869 28.7551 1.32697 27.7121 2.48942 27.2472C3.92649 26.6898 5.40025 26.2322 6.90025 25.8774C7.57376 25.7113 8.32266 25.8489 9.24143 25.8489ZM35.4227 41.6681C35.4227 41.5974 35.4227 41.5264 35.4227 41.4557C37.1914 41.4557 38.9613 41.4986 40.7288 41.4482C48.1715 41.2365 55.6135 41.0072 63.0548 40.76C65.3199 40.684 65.8821 40.2448 65.9609 37.9944C66.0607 35.143 65.9168 32.2825 65.8671 29.4264C65.8495 28.4507 65.4072 27.8895 64.3552 27.8469C63.3688 27.8072 62.3881 27.6251 61.4018 27.5885C49.0499 27.129 36.7303 27.8134 24.4134 28.6337C17.8704 29.0695 11.3243 29.4602 4.77524 29.8055C3.73134 29.8622 3.57587 30.394 3.62811 31.2214C3.83051 34.4435 4.04101 37.6618 4.22245 40.8833C4.28501 41.9985 4.90349 42.4474 5.93894 42.4587C10.5687 42.5087 15.2026 42.6942 19.8284 42.5625C25.0306 42.4127 30.2248 41.9785 35.4227 41.6681ZM33.1587 51.788L33.1522 51.9954C29.6173 52.1831 26.0823 52.4021 22.5437 52.5491C16.5099 52.7994 10.4748 53.0184 4.43832 53.2061C3.35375 53.2374 3.101 53.7422 3.13947 54.6663C3.2646 57.6829 3.36468 60.7007 3.49419 63.717C3.57146 65.5198 3.72286 65.807 5.60263 65.8977C10.072 66.1139 14.5494 66.3397 19.0228 66.2803C27.9264 66.1623 36.8269 65.8289 45.7296 65.6358C51.301 65.5151 56.8749 65.5082 62.4466 65.4084C64.5341 65.3709 65.1463 64.9163 65.2668 62.8877C65.4385 59.9875 65.3712 57.0726 65.3903 54.1639C65.3969 53.1864 64.9402 52.618 63.9063 52.5351C62.7654 52.4434 61.6314 52.1932 60.4915 52.1744C51.3801 52.023 42.2694 51.9113 33.1584 51.788H33.1587ZM33.1813 3.76288L33.1756 4.00564C30.1591 4.15611 27.1431 4.32752 24.1253 4.45265C17.7265 4.71824 11.3277 4.98664 4.92665 5.18434C3.85491 5.2175 3.3866 5.51407 3.43634 6.60614C3.57085 9.57016 3.66533 12.5364 3.78796 15.501C3.87211 17.5422 3.9916 17.8065 6.01401 17.9038C10.4327 18.1168 14.8604 18.3264 19.2806 18.2663C27.9246 18.1487 36.5651 17.8174 45.2081 17.6291C51.0401 17.5018 56.8743 17.4834 62.7066 17.3845C64.8701 17.3479 65.4385 16.9237 65.5802 14.7533C65.7595 12.0089 65.7513 9.24761 65.7019 6.49475C65.6706 4.82959 65.4854 4.72854 63.7768 4.46326C62.9565 4.31669 62.1271 4.22629 61.2945 4.19267C51.924 4.03689 42.5529 3.89364 33.1813 3.76288ZM53.726 45.0826L11.8832 46.5254C12.0327 47.4457 12.1616 48.2396 12.2946 49.0571L53.5693 47.66C53.6115 46.9683 53.6578 46.2029 53.726 45.0826ZM13.5137 25.4354L54.403 23.1809C54.4742 22.9841 54.5253 22.7807 54.5556 22.5736C54.5495 22.2209 54.5188 21.8691 54.4637 21.5207L13.0457 22.0303C13.1586 23.1564 13.2418 24.0324 13.3394 24.9083C13.381 25.0889 13.4391 25.2654 13.5131 25.4354H13.5137Z" fill="#FFFCF2"/>
<path d="M22.4217 36.6937C19.4924 36.832 15.6976 37.0181 11.9014 37.1845C11.2282 37.2139 10.4802 37.3343 9.89713 37.0956C9.37159 36.8801 8.76691 36.2726 8.6812 35.7574C8.61363 35.3507 9.19234 34.5668 9.64625 34.4051C10.6321 34.0733 11.6621 33.8913 12.7019 33.8651C20.2437 33.5705 27.7868 33.3057 35.3311 33.0709C36.0593 33.0563 36.7874 33.1053 37.5071 33.2173C38.3573 33.3399 39.0036 33.8116 39.0418 34.721C39.0799 35.6304 38.4515 36.1913 37.6306 36.3455C36.559 36.5514 35.4715 36.6629 34.3804 36.6787C30.684 36.7178 26.9874 36.6937 22.4217 36.6937Z" fill="#FFFCF2"/>
<path d="M61.2684 36.1403C60.7444 36.1277 60.2463 35.9101 59.881 35.5344C59.5157 35.1586 59.3123 34.6545 59.3145 34.1304C59.3586 32.9332 60.1726 32.046 61.2083 32.0658C61.7558 32.0963 62.2718 32.3314 62.6541 32.7244C63.0365 33.1173 63.2573 33.6396 63.273 34.1877C63.2647 34.712 63.0492 35.2117 62.6736 35.5776C62.298 35.9435 61.7927 36.1458 61.2684 36.1403Z" fill="#FFFCF2"/>
<path d="M54.5901 36.3523C54.0653 36.3508 53.5619 36.144 53.1877 35.776C52.8135 35.408 52.5982 34.9081 52.588 34.3833C52.5768 33.2803 53.2803 32.6462 54.5063 32.6544C55.7729 32.6625 56.5675 33.3876 56.5277 34.5C56.5031 34.9981 56.2884 35.4677 55.928 35.8123C55.5676 36.1568 55.0887 36.3501 54.5901 36.3523Z" fill="#FFFCF2"/>
<path d="M46.7109 32.9189C47.1784 32.9355 47.6238 33.122 47.9636 33.4436C48.3034 33.7651 48.5142 34.1995 48.5565 34.6654C48.559 34.8989 48.5127 35.1302 48.4208 35.3448C48.3288 35.5593 48.1932 35.7524 48.0225 35.9116C47.8518 36.0708 47.6497 36.1927 47.4293 36.2695C47.2089 36.3463 46.9748 36.3762 46.7421 36.3575C46.2981 36.3352 45.8796 36.1433 45.5729 35.8214C45.2663 35.4995 45.0949 35.0722 45.0942 34.6276C45.0822 34.4078 45.1152 34.1879 45.191 33.9813C45.2669 33.7747 45.384 33.5857 45.5353 33.4258C45.6865 33.2659 45.8688 33.1385 46.0709 33.0514C46.273 32.9642 46.4908 32.9192 46.7109 32.9189Z" fill="#FFFCF2"/>
<path d="M22.8268 60.7474C19.0312 60.7474 15.2363 60.7474 11.4419 60.7474C10.8182 60.767 10.1938 60.7535 9.57154 60.707C8.71722 60.6153 8.06182 60.2005 8.02303 59.2564C7.98706 58.3821 8.58175 57.9172 9.3488 57.7624C10.2633 57.56 11.1944 57.4421 12.1304 57.4102C19.7748 57.295 27.4196 57.2037 35.0649 57.1361C35.7356 57.1295 36.4929 57.0986 37.0544 57.3842C37.6206 57.672 38.342 58.333 38.3527 58.8438C38.3636 59.3609 37.6819 60.0623 37.1295 60.3739C36.5846 60.6807 35.8219 60.6738 35.154 60.6779C31.0451 60.702 26.9361 60.6898 22.8287 60.6898L22.8268 60.7474Z" fill="#FFFCF2"/>
<path d="M60.55 56.7021C61.1024 56.7075 61.6315 56.9252 62.0276 57.3102C62.4236 57.6952 62.6563 58.2179 62.6772 58.7699C62.678 59.2707 62.4896 59.7533 62.1497 60.1212C61.8099 60.489 61.3437 60.715 60.8444 60.7539C60.3177 60.7809 59.8019 60.5977 59.4102 60.2447C59.0184 59.8916 58.7828 59.3976 58.755 58.871C58.7194 57.7054 59.5265 56.7309 60.55 56.7021Z" fill="#FFFCF2"/>
<path d="M52.0061 58.8604C51.9908 57.7699 52.7209 57.0958 53.9031 57.1086C55.1544 57.1236 55.9561 57.8565 55.9239 58.9596C55.9034 59.4555 55.6928 59.9246 55.3357 60.2695C54.9787 60.6144 54.5027 60.8087 54.0063 60.8121C53.484 60.8127 52.9821 60.6088 52.6083 60.244C52.2344 59.8793 52.0183 59.3826 52.0061 58.8604Z" fill="#FFFCF2"/>
<path d="M46.2777 60.6378C46.0459 60.6452 45.8149 60.6055 45.5989 60.521C45.3829 60.4365 45.1863 60.309 45.0211 60.1462C44.8558 59.9834 44.7253 59.7889 44.6375 59.5742C44.5497 59.3595 44.5064 59.1292 44.5102 58.8973C44.505 58.6785 44.5433 58.461 44.623 58.2572C44.7026 58.0534 44.822 57.8675 44.9742 57.7103C45.1263 57.5531 45.3082 57.4277 45.5093 57.3415C45.7104 57.2553 45.9266 57.2099 46.1454 57.208C46.6094 57.2395 47.0467 57.4365 47.3779 57.7631C47.709 58.0896 47.9121 58.5242 47.9501 58.9877C47.9518 59.2068 47.9096 59.4239 47.8259 59.6264C47.7422 59.8289 47.6187 60.0125 47.4628 60.1664C47.3068 60.3202 47.1216 60.4412 46.918 60.5222C46.7145 60.6032 46.4967 60.6425 46.2777 60.6378Z" fill="#FFFCF2"/>
<path d="M23.2344 12.7094H12.004C11.3783 12.7094 10.7549 12.7334 10.1317 12.7094C9.22234 12.6743 8.43091 12.3593 8.33362 11.3442C8.22539 10.2114 9.06813 9.81133 9.99596 9.65492C10.9179 9.48973 11.851 9.39408 12.7873 9.36871C19.9637 9.25714 27.1406 9.16557 34.3181 9.09404C35.3022 9.08434 36.3342 9.06806 37.2558 9.3471C37.5785 9.46385 37.8726 9.64803 38.1185 9.88736C38.3644 10.1267 38.5565 10.4157 38.682 10.7351C38.9323 11.5938 38.2253 12.1835 37.4025 12.3987C36.7502 12.5687 36.0793 12.6573 35.4051 12.6624C31.3481 12.6859 27.2911 12.6743 23.2344 12.6743V12.7094Z" fill="#FFFCF2"/>
<path d="M61.0841 12.7268C60.8228 12.7367 60.5621 12.6941 60.3175 12.6017C60.0729 12.5092 59.8492 12.3688 59.6597 12.1886C59.4702 12.0083 59.3187 11.792 59.2141 11.5523C59.1096 11.3126 59.054 11.0544 59.0508 10.7929C59.0483 9.61888 59.8791 8.66849 60.9043 8.67287C61.429 8.69951 61.9266 8.91436 62.3058 9.27805C62.685 9.64173 62.9204 10.1299 62.9689 10.6531C62.9849 10.9138 62.9484 11.1751 62.8617 11.4215C62.775 11.6679 62.6399 11.8944 62.4642 12.0877C62.2885 12.281 62.0759 12.4371 61.8388 12.5469C61.6018 12.6567 61.3452 12.7178 61.0841 12.7268Z" fill="#FFFCF2"/>
<path d="M54.3361 12.7847C54.0776 12.7924 53.8201 12.7491 53.5784 12.6573C53.3367 12.5655 53.1154 12.4269 52.9272 12.2496C52.739 12.0722 52.5876 11.8596 52.4816 11.6237C52.3757 11.3878 52.3172 11.1333 52.3096 10.8749C52.2783 9.76935 52.9856 9.09366 54.1721 9.09866C55.4319 9.10398 56.2384 9.81814 56.2246 10.9158C56.2152 11.4119 56.0125 11.8848 55.6599 12.2338C55.3072 12.5828 54.8322 12.7804 54.3361 12.7847Z" fill="#FFFCF2"/>
<path d="M46.4032 12.6286C46.1713 12.6137 45.945 12.5516 45.7381 12.4459C45.5312 12.3402 45.3481 12.1932 45.2001 12.0141C45.0522 11.835 44.9425 11.6275 44.8778 11.4043C44.8131 11.1811 44.7948 10.9471 44.8241 10.7166C44.9558 9.79658 45.465 9.19755 46.4611 9.21319C46.9538 9.23489 47.4179 9.45098 47.7516 9.81417C48.0853 10.1774 48.2614 10.658 48.2414 11.1508C48.1931 11.5903 47.9725 11.9928 47.6279 12.2698C47.2833 12.5468 46.8428 12.6759 46.4032 12.6286Z" fill="#FFFCF2"/>
</svg>
