<svg width="140" height="60" viewBox="0 0 140 60" fill="none" xmlns="http://www.w3.org/2000/svg">
<rect x="1" y="1" width="138" height="58" rx="29" fill="#BFF747"/>
<path d="M43.0114 36V24.3636H47.6023C48.4848 24.3636 49.2367 24.5322 49.858 24.8693C50.4792 25.2027 50.9527 25.6667 51.2784 26.2614C51.608 26.8523 51.7727 27.5341 51.7727 28.3068C51.7727 29.0795 51.6061 29.7614 51.2727 30.3523C50.9394 30.9432 50.4564 31.4034 49.8239 31.733C49.1951 32.0625 48.4337 32.2273 47.5398 32.2273H44.6136V30.2557H47.142C47.6155 30.2557 48.0057 30.1742 48.3125 30.0114C48.6231 29.8447 48.8542 29.6155 49.0057 29.3239C49.161 29.0284 49.2386 28.6894 49.2386 28.3068C49.2386 27.9205 49.161 27.5833 49.0057 27.2955C48.8542 27.0038 48.6231 26.7784 48.3125 26.6193C48.0019 26.4564 47.608 26.375 47.1307 26.375H45.4716V36H43.0114ZM55.7457 24.3636V36H53.3253V24.3636H55.7457ZM60.1733 36.1648C59.6165 36.1648 59.1203 36.0682 58.6847 35.875C58.2491 35.678 57.9044 35.3883 57.6506 35.0057C57.4006 34.6193 57.2756 34.1383 57.2756 33.5625C57.2756 33.0777 57.3646 32.6705 57.5426 32.3409C57.7206 32.0114 57.9631 31.7462 58.2699 31.5455C58.5767 31.3447 58.9252 31.1932 59.3153 31.0909C59.7093 30.9886 60.1222 30.9167 60.554 30.875C61.0616 30.822 61.4706 30.7727 61.7812 30.7273C62.0919 30.678 62.3172 30.6061 62.4574 30.5114C62.5975 30.4167 62.6676 30.2765 62.6676 30.0909V30.0568C62.6676 29.697 62.554 29.4186 62.3267 29.2216C62.1032 29.0246 61.785 28.9261 61.3722 28.9261C60.9366 28.9261 60.59 29.0227 60.3324 29.2159C60.0748 29.4053 59.9044 29.6439 59.821 29.9318L57.5824 29.75C57.696 29.2197 57.9195 28.7614 58.2528 28.375C58.5862 27.9848 59.0161 27.6856 59.5426 27.4773C60.0729 27.2652 60.6866 27.1591 61.3835 27.1591C61.8684 27.1591 62.3324 27.2159 62.7756 27.3295C63.2225 27.4432 63.6184 27.6193 63.9631 27.858C64.3116 28.0966 64.5862 28.4034 64.7869 28.7784C64.9877 29.1496 65.0881 29.5947 65.0881 30.1136V36H62.7926V34.7898H62.7244C62.5843 35.0625 62.3968 35.303 62.1619 35.5114C61.9271 35.7159 61.6449 35.8769 61.3153 35.9943C60.9858 36.108 60.6051 36.1648 60.1733 36.1648ZM60.8665 34.4943C61.2225 34.4943 61.5369 34.4242 61.8097 34.2841C62.0824 34.1402 62.2964 33.947 62.4517 33.7045C62.607 33.4621 62.6847 33.1875 62.6847 32.8807V31.9545C62.6089 32.0038 62.5047 32.0492 62.3722 32.0909C62.2434 32.1288 62.0975 32.1648 61.9347 32.1989C61.7718 32.2292 61.6089 32.2576 61.446 32.2841C61.2831 32.3068 61.1354 32.3277 61.0028 32.3466C60.7188 32.3883 60.4706 32.4545 60.2585 32.5455C60.0464 32.6364 59.8816 32.7595 59.7642 32.9148C59.6468 33.0663 59.5881 33.2557 59.5881 33.483C59.5881 33.8125 59.7074 34.0644 59.946 34.2386C60.1884 34.4091 60.4953 34.4943 60.8665 34.4943ZM68.1477 39.2727C67.8409 39.2727 67.553 39.2481 67.2841 39.1989C67.0189 39.1534 66.7992 39.0947 66.625 39.0227L67.1705 37.2159C67.4545 37.303 67.7102 37.3504 67.9375 37.358C68.1686 37.3655 68.3674 37.3125 68.5341 37.1989C68.7045 37.0852 68.8428 36.892 68.9489 36.6193L69.0909 36.25L65.9602 27.2727H68.5057L70.3125 33.6818H70.4034L72.2273 27.2727H74.7898L71.3977 36.9432C71.2348 37.4129 71.0133 37.822 70.733 38.1705C70.4564 38.5227 70.1061 38.7936 69.6818 38.983C69.2576 39.1761 68.7462 39.2727 68.1477 39.2727Z" fill="black"/>
<rect x="1" y="1" width="138" height="58" rx="29" stroke="black" stroke-width="2"/>
<circle cx="106" cy="30" r="15" fill="black"/>
<path fill-rule="evenodd" clip-rule="evenodd" d="M110 50C121.046 50 130 41.0457 130 30C130 18.9543 121.046 10 110 10C98.9543 10 90 18.9543 90 30C90 41.0457 98.9543 50 110 50ZM108.887 22.9199C108.12 22.4085 107.133 22.3608 106.32 22.7958C105.507 23.2309 105 24.078 105 25V35C105 35.922 105.507 36.7691 106.32 37.2042C107.133 37.6392 108.12 37.5916 108.887 37.0801L116.387 32.0801C117.082 31.6165 117.5 30.8359 117.5 30C117.5 29.1641 117.082 28.3835 116.387 27.9199L108.887 22.9199Z" fill="#FDFDE1"/>
</svg>
