<svg xmlns="http://www.w3.org/2000/svg" width="1920" height="352" viewBox="0 0 1920 352" version="1.1"><path d="M 246.395 1.880 C 239.804 5.943, 237.036 15.301, 240.464 21.931 C 242.457 25.785, 247.289 29.685, 251.112 30.525 L 254.272 31.219 253.726 73.859 C 253.276 108.974, 252.891 117.559, 251.544 122.500 C 250.644 125.800, 245.364 139.388, 239.810 152.694 L 229.712 176.889 222.606 171.367 C 218.698 168.331, 210.851 161.718, 205.169 156.673 L 194.837 147.500 199.169 143.666 C 211.345 132.886, 224.412 122.259, 232.804 116.311 C 243.518 108.716, 245.691 106.160, 244.048 103.090 C 242.352 99.921, 239.403 98.714, 236.782 100.117 C 229.926 103.786, 207.194 121.381, 194.514 132.835 L 187.500 139.170 181.812 133.015 C 178.683 129.631, 173.454 122.955, 170.191 118.181 C 159.298 102.242, 154.647 90.714, 154.582 79.500 C 154.538 71.822, 156.059 67.886, 160.759 63.515 C 170.850 54.130, 199.184 53.689, 229.265 62.448 C 239.799 65.515, 241.172 65.572, 243.464 63.040 C 245.653 60.621, 244.870 56.536, 241.914 54.954 C 238.058 52.890, 223.538 48.948, 212 46.832 C 198.592 44.374, 181.322 43.972, 172.500 45.913 C 150.773 50.695, 139.781 66.961, 143.952 88.161 C 146.667 101.960, 158.178 122.598, 172.488 139.321 C 178.438 146.275, 179.025 147.329, 177.780 148.821 C 177.009 149.745, 173.869 153.425, 170.803 157 C 158.898 170.879, 149.088 187.293, 144.443 201.104 C 141.713 209.221, 141.925 222.016, 144.899 228.714 C 151.141 242.766, 166.447 250, 189.939 250 C 196.953 250, 199.095 250.305, 198.725 251.250 C 198.456 251.938, 194.740 260.825, 190.467 271 C 183.696 287.121, 182.693 290.285, 182.661 295.607 C 182.592 307.305, 189.651 316.936, 201.183 320.879 C 206.064 322.548, 212.785 322.755, 283.182 323.400 C 331.792 323.845, 360.529 323.750, 361.682 323.140 C 362.682 322.610, 365.625 321.430, 368.222 320.517 C 377.968 317.089, 386.163 303.672, 384.575 293.741 C 384.097 290.755, 372.918 261.520, 368.422 251.500 C 368.134 250.860, 371.491 250.612, 377.756 250.811 C 395.227 251.368, 407.685 247.421, 416.500 238.539 C 422.644 232.347, 425.012 226.206, 425.005 216.480 C 424.993 199.391, 414.656 178.123, 395.488 155.747 L 388.873 148.026 396.038 139.763 C 410.325 123.287, 421.237 104.414, 424.426 90.664 C 426.394 82.179, 426.416 76.764, 424.510 70.345 C 417.018 45.118, 383.140 38.651, 333.500 52.972 C 325.104 55.394, 322.137 58.664, 324.765 62.600 C 326.825 65.684, 329.499 65.845, 337.963 63.393 C 360.578 56.843, 384.688 55.116, 397.643 59.117 C 408.401 62.440, 414.973 70.365, 414.994 80.040 C 415.022 92.645, 401.753 117.178, 384.488 136.443 L 380.954 140.386 375.727 135.347 C 361.861 121.978, 333.128 100, 329.518 100 C 328.304 100, 326.565 100.823, 325.655 101.829 C 322.423 105.400, 323.568 107.632, 331.750 113.710 C 344.470 123.159, 358.033 134.260, 365.826 141.600 L 373.151 148.500 363.653 156.847 C 348.658 170.024, 338.755 177.315, 337.911 175.798 C 335.273 171.053, 317.743 126.011, 316.527 120.851 C 315.324 115.750, 315.027 106.307, 315.015 72.875 L 315 31.250 318.084 30.633 C 325.225 29.205, 330.167 23.015, 330.167 15.500 C 330.167 10.154, 327.988 5.841, 323.765 2.829 C 320.512 0.509, 320.367 0.499, 285 0.233 C 251.521 -0.018, 249.323 0.076, 246.395 1.880 M 251.200 12.200 C 249.340 14.060, 249.777 16.731, 252.223 18.443 C 254.118 19.771, 259.013 20, 285.523 20 C 308.361 20, 316.918 19.682, 317.800 18.800 C 319.343 17.257, 319.343 13.743, 317.800 12.200 C 316.083 10.483, 252.917 10.483, 251.200 12.200 M 265 35.500 L 265 40 273.345 40 C 282.292 40, 285 41.318, 285 45.674 C 285 49.634, 281.966 51, 273.171 51 L 265 51 265 55.500 L 265 60 272.777 60 C 281.451 60, 285 61.569, 285 65.402 C 285 69.639, 282.125 71, 273.171 71 L 265 71 265 75.500 L 265 80 272.777 80 C 281.451 80, 285 81.569, 285 85.402 C 285 89.639, 282.125 91, 273.171 91 L 265 91 265 95.500 L 265 100 273 100 C 279.667 100, 281.333 100.333, 283 102 C 285.491 104.491, 285.554 107.189, 283.171 109.345 C 281.788 110.597, 279.379 111, 273.278 111 C 264.625 111, 264 111.383, 264 116.687 C 264 122.935, 259.792 134.503, 244.025 171.598 C 241.898 176.602, 240.009 181.469, 239.829 182.412 C 239.589 183.664, 242.885 186.269, 252 192.033 C 269.517 203.110, 269 202.684, 269 206.024 C 269 209.509, 265.336 212.448, 262.391 211.324 C 260.458 210.587, 245.039 201.137, 238.334 196.581 L 234.611 194.051 226.301 214.188 C 221.730 225.262, 218.165 234.499, 218.379 234.713 C 218.959 235.293, 233.312 231.470, 243 228.156 C 266.717 220.041, 294.664 206.180, 319.270 190.327 L 329.041 184.033 327.455 180.266 C 326.583 178.195, 322.789 168.850, 319.023 159.500 C 315.258 150.150, 311.292 140.454, 310.211 137.953 C 309.130 135.452, 307.290 129.629, 306.122 125.012 C 304.123 117.105, 304 114.140, 304 73.810 L 304 31 284.500 31 L 265 31 265 35.500 M 182.504 160.720 C 169.866 175.052, 158.923 192.626, 155.598 203.932 C 153.428 211.309, 153.573 220.463, 155.943 225.684 C 160.330 235.346, 176.813 240.502, 197.086 238.553 L 204.500 237.840 209.884 224.670 C 212.845 217.427, 217.457 206.220, 220.134 199.766 C 222.810 193.313, 225 187.846, 225 187.618 C 225 187.391, 220.162 183.396, 214.250 178.741 C 208.338 174.087, 200.060 167.066, 195.856 163.139 C 191.651 159.213, 187.826 156.042, 187.356 156.094 C 186.885 156.146, 184.702 158.228, 182.504 160.720 M 372.500 163.604 C 368.100 167.748, 359.663 174.819, 353.752 179.319 C 347.841 183.818, 343.003 187.820, 343.002 188.211 C 343.001 188.603, 346.094 196.478, 349.875 205.711 C 353.656 214.945, 357.985 225.650, 359.495 229.500 C 361.004 233.350, 362.748 237.041, 363.370 237.702 C 365.115 239.557, 381.437 240.406, 389.929 239.083 C 410.848 235.825, 418.038 223.885, 411.515 203.235 C 407.834 191.583, 396.833 174.227, 384.291 160.286 L 380.500 156.071 372.500 163.604 M 318.051 204.072 C 286.444 223.698, 249.064 239.921, 221.636 245.915 C 216.791 246.974, 212.656 248.011, 212.447 248.219 C 212.239 248.428, 208.003 258.243, 203.034 270.030 C 192.955 293.941, 192.159 297.948, 196.270 304.102 C 200.850 310.958, 196.617 310.601, 282.534 311.375 C 360.205 312.075, 360.214 312.075, 364.569 309.967 C 370.029 307.324, 373 302.701, 373 296.850 C 373 292.631, 371.276 287.819, 358.740 257.056 L 355.300 248.613 349.400 247.289 C 337.877 244.704, 325.329 240.785, 312.686 235.822 C 302.206 231.708, 299.696 230.331, 298.909 228.261 C 297.652 224.955, 300.090 221, 303.386 221 C 304.672 221, 308.957 222.333, 312.907 223.962 C 319.962 226.871, 341.724 234.112, 347.376 235.430 C 349.532 235.933, 350.114 235.776, 349.698 234.801 C 349.392 234.085, 345.623 224.838, 341.321 214.250 C 337.020 203.663, 333.275 195.023, 333 195.050 C 332.725 195.077, 325.998 199.137, 318.051 204.072 M 643.250 287.085 C 641.039 287.921, 641 288.228, 641 304.851 C 641 324.487, 639.968 322.963, 653.281 322.986 C 659.381 322.997, 661.191 322.667, 661.655 321.457 C 662.565 319.085, 661.386 318.541, 654.169 318 L 647.500 317.500 647.500 312.500 L 647.500 307.500 653.500 307 C 658.667 306.569, 659.500 306.222, 659.500 304.500 C 659.500 302.778, 658.667 302.431, 653.500 302 L 647.500 301.500 647.195 296.750 L 646.890 292 651.695 291.858 C 661.633 291.566, 661.485 291.604, 661.820 289.250 C 661.995 288.012, 661.770 286.941, 661.320 286.869 C 657.514 286.258, 645.041 286.407, 643.250 287.085 M 705.667 286.667 C 704.482 287.851, 704.952 290.638, 707.177 295.623 C 708.375 298.305, 711.239 305.450, 713.541 311.500 C 717.254 321.258, 717.997 322.500, 720.114 322.500 C 722.249 322.500, 723.150 320.920, 728.669 307.500 C 734.818 292.548, 736.327 286, 733.622 286 C 731.464 286, 730.512 287.672, 725.222 300.744 L 720.267 312.988 718.487 308.244 C 717.508 305.635, 715.926 301.700, 714.972 299.500 C 714.018 297.300, 712.658 293.925, 711.951 292 C 709.922 286.479, 707.722 284.611, 705.667 286.667 M 782.120 287.880 C 780.151 289.849, 780 291.055, 780 304.809 C 780 315.322, 780.374 320.129, 781.290 321.382 C 782.389 322.884, 783.838 323.090, 791.066 322.770 C 800.098 322.371, 802.216 321.726, 801.409 319.624 C 801.076 318.755, 798.650 318.239, 794.226 318.096 C 790.552 317.977, 787.418 317.751, 787.261 317.595 C 786.939 317.272, 786.678 311.378, 786.872 308.800 C 786.974 307.450, 788.185 307.038, 792.750 306.800 C 797.844 306.534, 798.536 306.243, 798.820 304.250 C 799.120 302.132, 798.788 302, 793.166 302 L 787.193 302 786.847 296.999 C 786.518 292.256, 786.628 291.995, 789 291.924 C 800.465 291.579, 800.490 291.573, 800.820 289.250 C 801.104 287.244, 800.713 287, 797.209 287 C 795.048 287, 791.245 286.721, 788.759 286.380 C 784.984 285.863, 783.890 286.110, 782.120 287.880 M 848.245 287.155 C 846.790 288.610, 846.469 319.614, 847.885 321.848 C 848.355 322.590, 849.586 323.036, 850.620 322.839 C 852.205 322.537, 852.579 321.305, 853 314.991 L 853.500 307.500 858.073 315 C 861.217 320.156, 863.248 322.500, 864.573 322.500 C 867.676 322.500, 867.297 318.979, 863.551 313 L 860.106 307.500 863.184 305.907 C 870.314 302.216, 870.717 292.427, 863.915 288.179 C 861.065 286.399, 849.741 285.659, 848.245 287.155 M 912.153 287.247 C 910.423 288.977, 910.594 289.506, 916 299.096 C 920.442 306.976, 921 308.627, 921 313.901 C 921 321.053, 921.642 323, 924 323 C 926.364 323, 926.991 321.076, 927.043 313.668 C 927.077 308.948, 927.658 306.561, 929.521 303.500 C 933.796 296.476, 937 290.110, 937 288.640 C 937 286.987, 934.761 285.882, 933.359 286.843 C 932.259 287.596, 926.694 296.630, 925.716 299.250 C 924.628 302.165, 923.591 301.292, 919.968 294.410 C 916.265 287.374, 914.053 285.347, 912.153 287.247 M 980.750 286.771 C 978.568 287.239, 978.447 290.574, 980.582 291.393 C 981.452 291.727, 983.477 292, 985.082 292 L 988 292 988 307.031 C 988 319.526, 988.255 322.161, 989.513 322.643 C 993.200 324.058, 993.871 321.450, 993.682 306.434 C 993.487 290.953, 993.290 291.524, 998.681 291.952 C 1001.506 292.176, 1003.565 288.714, 1001.584 287.070 C 1000.315 286.017, 985.265 285.801, 980.750 286.771 M 1049.250 286.662 C 1047.751 287.267, 1047.425 321.527, 1048.910 322.444 C 1049.410 322.753, 1050.535 322.732, 1051.410 322.396 C 1052.678 321.910, 1053 320.186, 1053 313.893 L 1053 306 1061 306 L 1069 306 1069 312.918 C 1069 316.723, 1069.273 320.548, 1069.607 321.418 C 1070.392 323.464, 1073.608 323.464, 1074.393 321.418 C 1074.727 320.548, 1075 312.728, 1075 304.041 C 1075 291.220, 1074.717 288.010, 1073.500 287 C 1070.766 284.731, 1069 287.526, 1069 294.122 L 1069 300 1061 300 L 1053 300 1053 294.582 C 1053 286.865, 1052.318 285.424, 1049.250 286.662 M 1178.122 287.278 C 1176.719 288.681, 1176.598 319.822, 1177.987 322 C 1178.726 323.160, 1179.347 323.249, 1180.722 322.395 C 1182.193 321.480, 1182.586 319.412, 1183 310.395 L 1183.500 299.500 1185.288 302.774 C 1188.473 308.605, 1198.106 323, 1198.813 322.985 C 1201.615 322.922, 1201.996 320.823, 1202.140 304.639 C 1202.295 287.319, 1201.696 284.347, 1198.574 286.938 C 1197.428 287.890, 1196.996 290.873, 1196.782 299.323 L 1196.500 310.454 1189.192 298.812 C 1181.769 286.986, 1180.126 285.274, 1178.122 287.278 M 1262.885 287.380 C 1253.768 290.638, 1249.310 297.466, 1250.207 306.800 C 1251.333 318.519, 1264.501 326.160, 1275.589 321.527 C 1281.269 319.154, 1283 316.623, 1283 310.691 C 1283 302.836, 1281.880 301.837, 1273.476 302.199 C 1267.267 302.467, 1266.500 302.720, 1266.500 304.500 C 1266.500 306.167, 1267.333 306.583, 1271.500 307 C 1276.401 307.490, 1276.506 307.570, 1276.799 311.067 C 1277.052 314.080, 1276.696 314.818, 1274.502 315.817 C 1270.826 317.492, 1264.362 317.283, 1261.482 315.397 C 1258.323 313.326, 1255 307.929, 1255 304.866 C 1255 301.060, 1258.355 295.815, 1262.062 293.827 C 1266.462 291.467, 1270.132 291.516, 1275 294 C 1279.882 296.491, 1282 296.538, 1282 294.155 C 1282 291.722, 1279.029 289.130, 1274.316 287.449 C 1269.568 285.755, 1267.466 285.743, 1262.885 287.380 M 1468.637 287.420 C 1460.965 290.245, 1456 296.948, 1456 304.482 C 1456 316.323, 1465.548 324.345, 1477.507 322.551 C 1486.656 321.179, 1494.104 311.193, 1492.652 302.245 C 1490.868 291.248, 1478.678 283.723, 1468.637 287.420 M 1555.500 286.491 C 1554.950 286.675, 1553.297 287.089, 1551.827 287.412 C 1550.357 287.735, 1547.750 289.181, 1546.033 290.625 C 1532.959 301.627, 1539.746 321.795, 1556.791 322.590 C 1565.165 322.981, 1573.456 317.919, 1570.947 313.946 C 1570.174 312.721, 1569.428 312.844, 1566.069 314.750 C 1555.966 320.483, 1545 314.930, 1545 304.081 C 1545 300.838, 1545.686 299.222, 1548.251 296.424 C 1552.560 291.721, 1558.124 290.820, 1563.984 293.875 C 1568.787 296.378, 1570.580 296.537, 1571.351 294.529 C 1572.771 290.828, 1560.759 284.737, 1555.500 286.491 M 1684.286 287.250 C 1683.758 287.938, 1681.429 293, 1679.110 298.500 C 1676.791 304, 1673.729 311.047, 1672.306 314.161 C 1670.876 317.288, 1670.003 320.566, 1670.356 321.485 C 1671.427 324.275, 1674.389 322.733, 1676.500 318.286 L 1678.500 314.072 1686.051 314.036 L 1693.601 314 1695.788 318.500 C 1697.967 322.985, 1699.265 323.752, 1701.876 322.098 C 1702.986 321.395, 1702.252 318.827, 1698.094 308.863 C 1688.476 285.810, 1687.074 283.616, 1684.286 287.250 M 1749.643 287.272 C 1748.147 288.366, 1747.982 290.492, 1748.225 305.505 L 1748.500 322.500 1756 322.656 C 1763.978 322.821, 1766.869 321.752, 1764.890 319.367 C 1764.214 318.553, 1761.783 318, 1758.878 318 L 1754 318 1754 303.122 C 1754 287.291, 1753.266 284.622, 1749.643 287.272 M 1123.667 287.667 C 1123.300 288.033, 1123 295.860, 1123 305.060 C 1123 319.584, 1123.214 321.868, 1124.627 322.410 C 1128.343 323.836, 1129.001 321.380, 1128.986 306.128 C 1128.979 298.082, 1128.701 290.488, 1128.370 289.250 C 1127.799 287.121, 1125.116 286.217, 1123.667 287.667 M 1392.397 288.825 C 1385.139 294.892, 1387.032 302.617, 1396.809 306.822 C 1403.269 309.602, 1404.645 311.290, 1403.140 314.592 C 1401.462 318.275, 1396.286 317.656, 1393.993 313.500 C 1391.865 309.643, 1388.620 309.458, 1388.191 313.169 C 1387.749 316.991, 1392.414 321.741, 1397.309 322.454 C 1404.051 323.435, 1408.941 319.224, 1408.978 312.405 C 1409.004 307.587, 1407.307 305.690, 1399.672 302 C 1395.660 300.061, 1394.433 298.920, 1394.199 296.914 C 1393.556 291.377, 1400.303 290.289, 1402.967 295.500 C 1404.814 299.115, 1405.885 299.982, 1407.659 299.300 C 1410.123 298.355, 1409.177 293.331, 1405.923 290.077 C 1403.452 287.606, 1402.025 287.007, 1398.673 287.033 C 1396.198 287.053, 1393.644 287.782, 1392.397 288.825 M 1619.470 288.218 C 1619.183 288.965, 1619.073 296.985, 1619.224 306.038 C 1619.495 322.174, 1619.544 322.506, 1621.715 322.815 C 1624.807 323.255, 1625.123 321.219, 1624.786 303 C 1624.505 287.777, 1624.460 287.494, 1622.246 287.180 C 1621.006 287.004, 1619.756 287.471, 1619.470 288.218 M 854.250 291.687 C 853.485 291.981, 853 294.072, 853 297.083 L 853 302 856.800 302 C 858.890 302, 861.140 301.460, 861.800 300.800 C 863.372 299.228, 863.341 294.513, 861.750 293.260 C 860.119 291.975, 855.839 291.078, 854.250 291.687 M 1471.315 292.153 C 1469.564 292.632, 1466.751 294.403, 1465.065 296.089 C 1462.401 298.753, 1462 299.861, 1462 304.561 C 1462 311.479, 1465.388 315.791, 1471.737 316.952 C 1482.249 318.874, 1490.367 308.411, 1485.566 299.128 C 1482.838 293.853, 1476.480 290.741, 1471.315 292.153 M 1683.737 302.004 L 1681.150 308 1686.142 308 C 1691.721 308, 1691.711 308.040, 1688.050 299.862 L 1686.324 296.008 1683.737 302.004" stroke="none" fill="#f4a30e" fill-rule="evenodd"/><path d="M 983.184 42.171 C 977.648 43.129, 973.048 46.003, 968.162 51.554 C 955.750 65.654, 963.210 88.148, 982.050 93.434 C 986.992 94.821, 989.056 94.939, 993.113 94.069 C 1006.921 91.108, 1015.357 81.221, 1015.357 68 C 1015.357 51.154, 1000.444 39.182, 983.184 42.171 M 1180 58.981 L 1180 74.962 1182.435 75.573 C 1183.774 75.909, 1187.600 76.030, 1190.937 75.842 L 1197.004 75.500 1197.002 143.750 L 1197 212 1190 212 L 1183 212 1183 228.512 L 1183 245.024 1220.250 244.762 L 1257.500 244.500 1257.500 228.500 L 1257.500 212.500 1250.250 212.206 L 1243 211.912 1243 127.456 L 1243 43 1211.500 43 L 1180 43 1180 58.981 M 1622.681 43.653 C 1622.306 44.027, 1622 50.953, 1622 59.044 C 1622 70.674, 1622.304 74.007, 1623.450 74.958 C 1624.385 75.735, 1627.578 76.044, 1632.447 75.831 L 1639.993 75.500 1640.247 160 L 1640.500 244.500 1658.611 244.772 L 1676.722 245.044 1677.361 240.382 C 1677.712 237.819, 1678 234.360, 1678 232.696 L 1678 229.672 1681.605 234.299 C 1690.334 245.503, 1705.245 250.396, 1723.500 248.047 C 1745.713 245.189, 1764.292 227.047, 1771.168 201.500 C 1774.121 190.525, 1774.377 166.240, 1771.660 154.652 C 1766.339 131.955, 1749.217 113.553, 1730.114 110.002 C 1723.054 108.689, 1713.401 108.730, 1706.799 110.100 C 1701.200 111.262, 1690.265 116.770, 1687.903 119.618 C 1686.692 121.077, 1686.431 115.970, 1686 82.405 L 1685.500 43.500 1654.431 43.236 C 1637.343 43.091, 1623.055 43.278, 1622.681 43.653 M 567.999 55.044 C 531.445 57.729, 508.168 77.694, 506.323 107.946 C 505.274 125.155, 510.022 138.232, 521.425 149.534 C 530.524 158.554, 542.243 164.672, 566 172.809 C 588.481 180.508, 588.341 180.450, 593.675 184.121 C 598.882 187.703, 601.463 192.716, 600.566 197.502 C 599.288 204.311, 591.503 208, 578.412 208 C 560.582 208, 549.033 199.261, 549.006 185.750 C 549.003 184.238, 548.546 183, 547.990 183 C 547.435 183, 537.040 185.025, 524.891 187.500 C 512.741 189.975, 502.620 192, 502.400 192 C 502.180 192, 502 195.215, 502 199.145 C 502 215.583, 514.912 231.187, 536.500 240.837 C 555.550 249.353, 587.216 251.155, 607.685 244.889 C 634.028 236.825, 649.751 217.103, 649.942 191.886 C 650.119 168.571, 639.839 152.719, 617.327 141.594 C 613.515 139.710, 601.603 135.249, 590.856 131.681 C 559.336 121.216, 555.014 118.099, 555.937 106.500 C 556.230 102.820, 558.276 100.433, 563.500 97.676 C 566.711 95.982, 569.276 95.564, 576.500 95.562 C 591.219 95.558, 597.859 99.907, 599.463 110.603 C 599.944 113.810, 600.581 115, 601.817 115 C 603.596 115, 643.129 107.323, 646.384 106.346 C 648.062 105.842, 648.203 105.074, 647.669 99.355 C 645.532 76.471, 621.935 57.952, 591.722 55.448 C 578.967 54.391, 577.290 54.362, 567.999 55.044 M 1327.210 59.190 C 1325.333 61.067, 1325.528 90.364, 1327.429 91.941 C 1328.341 92.698, 1332.049 93.050, 1337.679 92.915 L 1346.500 92.703 1346.758 151.851 L 1347.016 211 1336.508 211 L 1326 211 1326 228.006 L 1326 245.012 1402.250 244.756 L 1478.500 244.500 1478.500 212.500 L 1478.500 180.500 1460.250 180.227 L 1442 179.955 1442 193.977 L 1442 208 1418.500 208 L 1395 208 1395 150.536 L 1395 93.072 1404.750 92.786 L 1414.500 92.500 1414.500 75.500 L 1414.500 58.500 1371.460 58.240 C 1338.819 58.042, 1328.128 58.272, 1327.210 59.190 M 713.619 110.603 C 690.240 114.826, 673.058 130.651, 666.843 153.686 C 664.095 163.870, 663.786 188.624, 666.268 199.728 C 669.021 212.048, 674.961 223.248, 682.785 230.873 C 695.811 243.569, 710.471 248.459, 735 248.289 C 758.380 248.128, 771.569 243.484, 784.027 231.027 C 791.567 223.487, 796.162 215.384, 799.177 204.314 C 802.122 193.504, 802.368 167.312, 799.636 155.592 C 795.124 136.233, 786.032 124.262, 769.747 116.240 C 756.074 109.504, 732.701 107.156, 713.619 110.603 M 870 109.578 C 868.625 109.823, 864.846 110.504, 861.602 111.091 C 846.155 113.888, 830.744 125.067, 823.818 138.500 C 817.851 150.074, 815.655 160.903, 815.710 178.500 C 815.784 202.656, 820.540 217.989, 831.697 230.039 C 838.727 237.633, 848.261 243.348, 858.534 246.125 C 870.518 249.366, 892.590 249.378, 903 246.149 C 918.865 241.228, 928.370 233.145, 935.568 218.454 C 941.737 205.863, 941.678 205.574, 932.521 203.537 C 920.304 200.819, 899.591 197.135, 898.906 197.558 C 898.556 197.774, 898.017 199.836, 897.708 202.139 C 896.570 210.627, 890.254 215.350, 880.848 214.748 C 871.666 214.161, 866.738 209.415, 864.098 198.618 C 862.293 191.234, 862.538 165.788, 864.484 158.539 C 867.281 148.122, 872.858 143, 881.403 143 C 890.788 143, 895.087 147.785, 895.345 158.518 C 895.465 163.538, 895.837 164.993, 897 164.993 C 899.566 164.993, 937.826 157.226, 939.080 156.451 C 941.154 155.169, 939.529 141.928, 936.457 135.084 C 931.590 124.239, 919.140 114.958, 904.760 111.457 C 898.651 109.970, 874.982 108.690, 870 109.578 M 1084.795 110.481 C 1060.301 114.488, 1044 128.283, 1044 145.003 C 1044 148.942, 1044.437 151.221, 1045.250 151.516 C 1047.220 152.230, 1085.145 159, 1087.176 159 C 1088.674 159, 1089 158.187, 1089 154.450 C 1089 147.740, 1091.161 144.303, 1096.238 142.936 C 1102.189 141.333, 1108.022 142.324, 1110.654 145.384 C 1112.926 148.026, 1115 155.740, 1115 161.549 C 1115 164.998, 1114.997 165, 1110.250 165.008 C 1107.638 165.013, 1101.450 165.462, 1096.500 166.006 C 1074.222 168.456, 1059.927 173.913, 1050.134 183.706 C 1042.347 191.493, 1039.699 198.214, 1039.685 210.228 C 1039.675 218.298, 1039.955 219.524, 1043.399 226.492 C 1046.308 232.380, 1048.265 234.890, 1052.343 237.970 C 1063.996 246.767, 1078.569 250.496, 1092.250 248.180 C 1101.922 246.542, 1108.598 243.131, 1115.899 236.098 C 1120.620 231.549, 1122.065 230.628, 1122.471 231.909 C 1123.473 235.065, 1130.546 241.339, 1136 243.909 C 1141.014 246.271, 1142.618 246.500, 1154.165 246.500 C 1161.131 246.500, 1167.110 246.220, 1167.453 245.879 C 1168.177 245.157, 1174.947 215.353, 1174.979 212.750 C 1174.996 211.294, 1174.081 211, 1169.523 211 C 1160.597 211, 1160.658 211.222, 1159.902 176.073 C 1159.216 144.161, 1158.541 139.439, 1153.279 129.771 C 1148.690 121.340, 1139.284 114.600, 1127.500 111.298 C 1120.105 109.226, 1095.355 108.753, 1084.795 110.481 M 1532.795 110.481 C 1508.333 114.483, 1492 128.380, 1492 145.191 C 1492 148.980, 1492.443 151.224, 1493.250 151.516 C 1495.220 152.230, 1533.145 159, 1535.176 159 C 1536.674 159, 1537 158.187, 1537 154.450 C 1537 147.740, 1539.161 144.303, 1544.238 142.936 C 1549.785 141.442, 1555.627 142.301, 1558.541 145.039 C 1561.040 147.386, 1563 154.426, 1563 161.049 L 1563 165 1558.461 165 C 1550.597 165, 1534.810 167.001, 1526.500 169.050 C 1508.980 173.371, 1495.788 182.707, 1490.267 194.691 C 1488.011 199.589, 1487.584 201.914, 1487.546 209.520 C 1487.504 217.789, 1487.781 219.110, 1490.871 225.388 C 1495.042 233.862, 1500.178 238.950, 1509.032 243.380 C 1518.360 248.046, 1527.779 249.553, 1538.758 248.136 C 1549.900 246.698, 1556.682 243.478, 1564.014 236.146 C 1568.918 231.242, 1570.034 230.532, 1570.506 232.020 C 1571.401 234.840, 1579.677 241.960, 1584.824 244.339 C 1588.837 246.194, 1591.295 246.500, 1602.165 246.500 C 1609.131 246.500, 1615.090 246.240, 1615.409 245.923 C 1616.031 245.303, 1623 214.422, 1623 212.284 C 1623 211.417, 1621.440 211, 1618.191 211 C 1610.923 211, 1609.697 209.603, 1608.857 200.356 C 1608.464 196.035, 1608.110 182.807, 1608.071 170.960 C 1608.018 154.949, 1607.603 147.890, 1606.453 143.460 C 1601.916 125.983, 1593.148 116.792, 1576 111.538 C 1568.318 109.185, 1544.307 108.597, 1532.795 110.481 M 1833 109.568 C 1816.672 112.404, 1805.489 117.438, 1798.672 125.020 C 1791.790 132.674, 1789.570 139.226, 1789.532 152 C 1789.504 161.266, 1789.806 163.153, 1792.108 168.060 C 1797.665 179.910, 1808.762 187.568, 1829.500 193.868 C 1835 195.539, 1842.794 197.899, 1846.820 199.114 C 1855.855 201.840, 1859 204.148, 1859 208.050 C 1859 211.940, 1855.611 214.045, 1848.286 214.703 C 1837.823 215.642, 1829 211.438, 1829 205.514 C 1829 204.097, 1828.438 202.739, 1827.750 202.497 C 1827.063 202.254, 1817.500 203.527, 1806.500 205.325 L 1786.500 208.594 1786.196 213.840 C 1785.593 224.262, 1793.203 235.041, 1805.364 240.987 C 1822.777 249.503, 1851.529 251.231, 1872.707 245.036 C 1900.697 236.848, 1913.284 211.855, 1901.441 187.980 C 1896.344 177.703, 1884.911 170.432, 1865.477 165.107 C 1841.275 158.475, 1835 155.368, 1835 150.017 C 1835 145.640, 1837.137 143.789, 1842.821 143.243 C 1851.530 142.406, 1857 146.375, 1857 153.530 C 1857 155.866, 1857.307 156.097, 1859.750 155.605 C 1861.263 155.301, 1870.825 153.631, 1881 151.896 C 1891.175 150.161, 1900.110 148.255, 1900.855 147.661 C 1902.732 146.165, 1901.913 136.624, 1899.470 131.533 C 1895.325 122.895, 1884.640 115.619, 1870.500 111.805 C 1863.726 109.978, 1839.098 108.509, 1833 109.568 M 950.225 129.236 L 950.500 145.500 959.750 145.788 L 969 146.075 969 178.994 L 969 211.912 961.750 212.206 L 954.500 212.500 954.500 228.500 L 954.500 244.500 991.750 244.762 L 1029 245.024 1029 228.512 L 1029 212 1022.009 212 L 1015.019 212 1014.759 162.750 L 1014.500 113.500 982.225 113.236 L 949.950 112.972 950.225 129.236 M 724.422 144.418 C 714.580 148.704, 710.262 163.194, 711.984 186.161 C 713.403 205.093, 719.010 213.622, 730.782 214.753 C 741.193 215.753, 748.229 211.240, 752.128 201.062 C 754.725 194.281, 755.837 173.849, 754.117 164.500 C 752.478 155.586, 748.280 148.006, 743.477 145.286 C 738.846 142.663, 729.438 142.234, 724.422 144.418 M 1698.364 144.443 C 1694.636 146.065, 1689.246 153.532, 1687.417 159.609 C 1683.562 172.419, 1684.900 193.189, 1690.274 203.970 C 1694.489 212.424, 1698.999 215.323, 1706.827 214.612 C 1713.161 214.037, 1716.011 212.348, 1720.046 206.778 C 1724.974 199.975, 1726.457 193.319, 1726.457 178 C 1726.457 158.849, 1723.063 149.255, 1714.714 144.799 C 1710.842 142.733, 1702.702 142.555, 1698.364 144.443 M 1099.447 192.614 C 1091.568 194.484, 1086.407 198.632, 1085.535 203.795 C 1084.817 208.041, 1086.209 212.676, 1088.789 214.637 C 1091.620 216.787, 1100.972 216.306, 1106.015 213.750 C 1111.842 210.797, 1114.151 206.623, 1114.774 197.919 L 1115.269 191 1110.384 191.088 C 1107.698 191.137, 1102.776 191.823, 1099.447 192.614 M 1548.500 192.447 C 1541.303 194.286, 1538.796 195.470, 1536.210 198.251 C 1531.641 203.165, 1532.430 212.508, 1537.615 214.870 C 1538.978 215.492, 1542.435 215.993, 1545.297 215.984 C 1556.141 215.949, 1563 208.512, 1563 196.788 L 1563 191 1558.250 191.085 C 1555.638 191.132, 1551.250 191.745, 1548.500 192.447" stroke="none" fill="#636363" fill-rule="evenodd"/></svg>