<svg width="30" height="30" viewBox="0 0 30 30" fill="none" xmlns="http://www.w3.org/2000/svg">
<rect x="9" y="10" width="12" height="11" fill="black"/>
<path fill-rule="evenodd" clip-rule="evenodd" d="M9.40052 5.18243C10.3651 5.10546 11.2809 4.72615 12.0174 4.0985C13.7361 2.63383 16.2639 2.63383 17.9826 4.0985C18.7191 4.72615 19.6349 5.10546 20.5995 5.18243C22.8505 5.36206 24.6379 7.14953 24.8176 9.40052C24.8945 10.3651 25.2739 11.2809 25.9015 12.0174C27.3662 13.7361 27.3662 16.2639 25.9015 17.9826C25.2739 18.7191 24.8945 19.6349 24.8176 20.5995C24.6379 22.8505 22.8505 24.6379 20.5995 24.8176C19.6349 24.8945 18.7191 25.2739 17.9826 25.9015C16.2639 27.3662 13.7361 27.3662 12.0174 25.9015C11.2809 25.2739 10.3651 24.8945 9.40052 24.8176C7.14953 24.6379 5.36206 22.8505 5.18243 20.5995C5.10546 19.6349 4.72615 18.7191 4.0985 17.9826C2.63383 16.2639 2.63383 13.7361 4.0985 12.0174C4.72615 11.2809 5.10546 10.3651 5.18243 9.40052C5.36206 7.14953 7.14953 5.36206 9.40052 5.18243ZM20.5607 13.0607C21.1464 12.4749 21.1464 11.5251 20.5607 10.9393C19.9749 10.3536 19.0251 10.3536 18.4393 10.9393L13.5 15.8787L11.5607 13.9393C10.9749 13.3536 10.0251 13.3536 9.43934 13.9393C8.85355 14.5251 8.85355 15.4749 9.43934 16.0607L12.4393 19.0607C13.0251 19.6464 13.9749 19.6464 14.5607 19.0607L20.5607 13.0607Z" fill="#FFE757"/>
</svg>
