<svg width="80" height="81" viewBox="0 0 80 81" fill="none" xmlns="http://www.w3.org/2000/svg">
<path fill-rule="evenodd" clip-rule="evenodd" d="M20.4335 55.687L0 76.1205L3.84051 79.961L24.274 59.5275L40.0279 75.2814L55.7127 59.5965L76.1595 80.0433L80 76.2028L59.5533 55.756L75.45 39.8593L59.6961 24.1054L79.961 3.84051L76.1205 0L55.8556 20.2649L40.1096 4.519L24.2129 20.4157L3.8795 0.0822493L0.038991 3.92276L20.3724 24.2562L4.68761 39.941L20.4335 55.687ZM24.274 51.8465L36.1184 40.0021L24.2129 28.0967L12.3686 39.941L24.274 51.8465ZM28.0535 24.2562L40.1096 12.2L52.0151 24.1054L39.9589 36.1616L28.0535 24.2562ZM55.8556 27.9459L43.7994 40.0021L55.7127 51.9155L67.7689 39.8593L55.8556 27.9459ZM51.8722 55.756L39.9589 43.8427L28.1146 55.687L40.0279 67.6003L51.8722 55.756Z" fill="black"/>
</svg>
