<svg width="80" height="80" viewBox="0 0 80 80" fill="none" xmlns="http://www.w3.org/2000/svg">
<path fill-rule="evenodd" clip-rule="evenodd" d="M40 80C62.0912 80 80 62.0912 80 40C80 17.9086 62.0912 0 40 0C17.9086 0 0 17.9086 0 40C0 62.0912 17.9086 80 40 80ZM40 75.2C59.4404 75.2 75.2 59.4404 75.2 40C75.2 20.5596 59.4404 4.8 40 4.8C20.5596 4.8 4.8 20.5596 4.8 40C4.8 59.4404 20.5596 75.2 40 75.2ZM40 70.4C56.7896 70.4 70.4 56.7896 70.4 40C70.4 23.2106 56.7896 9.6 40 9.6C23.2106 9.6 9.6 23.2106 9.6 40C9.6 56.7896 23.2106 70.4 40 70.4ZM40 65.6C54.1384 65.6 65.6 54.1384 65.6 40C65.6 25.8615 54.1384 14.4 40 14.4C25.8615 14.4 14.4 25.8615 14.4 40C14.4 54.1384 25.8615 65.6 40 65.6ZM60.8 40C60.8 51.4876 51.4876 60.8 40 60.8C28.5125 60.8 19.2 51.4876 19.2 40C19.2 28.5125 28.5125 19.2 40 19.2C51.4876 19.2 60.8 28.5125 60.8 40ZM56 40C56 48.8364 48.8364 56 40 56C31.1634 56 24 48.8364 24 40C24 31.1634 31.1634 24 40 24C48.8364 24 56 31.1634 56 40Z" fill="black"/>
</svg>
