<svg width="80" height="80" viewBox="0 0 80 80" fill="none" xmlns="http://www.w3.org/2000/svg">
<path fill-rule="evenodd" clip-rule="evenodd" d="M0 19.6H11H11.2V19.5977C15.8573 19.4914 19.6 15.6828 19.6 11V0H22V11.2C22 15.8392 25.7608 19.6 30.4 19.6C35.0392 19.6 38.8 15.8392 38.8 11.2V0H41.2V11.2C41.2 15.8392 44.9608 19.6 49.6 19.6C54.2392 19.6 58 15.8392 58 11.2V0H60.8V11.2C60.8 15.8392 64.5608 19.6 69.2 19.6H80V22H68.8C64.1608 22 60.4 25.7608 60.4 30.4C60.4 35.0392 64.1608 38.8 68.8 38.8H80V41.2H68.8C64.1608 41.2 60.4 44.9608 60.4 49.6C60.4 54.2392 64.1608 58 68.8 58H80V60.4H69.2C64.5608 60.4 60.8 64.1608 60.8 68.8V69.2V80H58V68.8C58 64.1608 54.2392 60.4 49.6 60.4C44.9608 60.4 41.2 64.1608 41.2 68.8V80H38.8V68.8C38.8 64.1608 35.0392 60.4 30.4 60.4C25.7608 60.4 22 64.1608 22 68.8V80H19.6V69C19.6 64.3172 15.8573 60.5084 11.2 60.4024V60.4H11H0V58H11.2C15.8392 58 19.6 54.2392 19.6 49.6C19.6 44.9608 15.8392 41.2 11.2 41.2H0V38.8H11.2C15.8392 38.8 19.6 35.0392 19.6 30.4C19.6 25.7608 15.8392 22 11.2 22H0V19.6ZM30.4 38.8C35.0392 38.8 38.8 35.0392 38.8 30.4C38.8 25.7608 35.0392 22 30.4 22C25.7608 22 22 25.7608 22 30.4C22 35.0392 25.7608 38.8 30.4 38.8ZM49.6 38.8C54.2392 38.8 58 35.0392 58 30.4C58 25.7608 54.2392 22 49.6 22C44.9608 22 41.2 25.7608 41.2 30.4C41.2 35.0392 44.9608 38.8 49.6 38.8ZM38.8 49.6C38.8 54.2392 35.0392 58 30.4 58C25.7608 58 22 54.2392 22 49.6C22 44.9608 25.7608 41.2 30.4 41.2C35.0392 41.2 38.8 44.9608 38.8 49.6ZM49.6 58C54.2392 58 58 54.2392 58 49.6C58 44.9608 54.2392 41.2 49.6 41.2C44.9608 41.2 41.2 44.9608 41.2 49.6C41.2 54.2392 44.9608 58 49.6 58Z" fill="black"/>
</svg>
