<svg width="80" height="80" viewBox="0 0 80 80" fill="none" xmlns="http://www.w3.org/2000/svg">
<path d="M17.3085 63.1295L17.2687 63.0051L17.1438 62.9667C7.36163 59.9651 0.25 50.8601 0.25 40.0948C0.25 29.3535 7.32991 20.2651 17.0783 17.243L17.2041 17.204L17.2431 17.0782C20.2652 7.32988 29.3536 0.25 40.0948 0.25C50.8601 0.25 59.9651 7.36161 62.9668 17.1437L63.0051 17.2687L63.1296 17.3085C72.7706 20.3947 79.75 29.43 79.75 40.0948C79.75 50.7835 72.7392 59.8354 63.0646 62.9017L62.941 62.9409L62.9018 63.0645C59.8355 72.7392 50.7836 79.75 40.0948 79.75C29.43 79.75 20.3947 72.7706 17.3085 63.1295ZM42.6099 42.8246L42.7993 42.7993L42.8246 42.6099C42.9345 41.787 42.9912 40.9475 42.9912 40.0948C42.9912 39.1744 42.9251 38.2692 42.7974 37.3839L42.7704 37.1965L42.5827 37.1718C41.7686 37.0642 40.9381 37.0088 40.0948 37.0088C39.1837 37.0088 38.2876 37.0735 37.4109 37.1987L37.2252 37.2252L37.1987 37.4109C37.0735 38.2876 37.0088 39.1837 37.0088 40.0948C37.0088 40.9381 37.0643 41.7685 37.1718 42.5827L37.1966 42.7704L37.3839 42.7974C38.2693 42.9251 39.1744 42.9912 40.0948 42.9912C40.9475 42.9912 41.787 42.9345 42.6099 42.8246ZM41.0437 48.4416L41.2287 48.0684L40.8124 48.0807C40.574 48.0877 40.3349 48.0912 40.0948 48.0912C39.7907 48.0912 39.4878 48.0855 39.1864 48.0743L38.7667 48.0586L38.9531 48.435C39.2085 48.951 39.487 49.4536 39.7871 49.9415L40 50.2877L40.2129 49.9415C40.5117 49.4557 40.7891 48.9553 41.0437 48.4416ZM43.5786 54.0808L43.4437 54.2677L43.619 54.4173C46.9057 57.222 51.1701 58.9154 55.8294 58.9154C56.7405 58.9154 57.6366 58.8506 58.5133 58.7254L58.699 58.6989L58.7255 58.5133C58.8507 57.6365 58.9154 56.7404 58.9154 55.8294C58.9154 51.1701 57.222 46.9057 54.4174 43.619L54.2678 43.4437L54.0809 43.5786C52.0075 45.0754 49.6848 46.2481 47.1871 47.0224L47.0613 47.0614L47.0224 47.1871C46.248 49.6848 45.0754 52.0075 43.5786 54.0808ZM36.381 54.4173L36.5563 54.2677L36.4214 54.0808C34.9115 51.9893 33.7315 49.6442 32.9574 47.1216L32.9191 46.9967L32.7947 46.9569C30.3759 46.1826 28.1245 45.0338 26.1087 43.5786L25.9219 43.4437L25.7722 43.619C22.9676 46.9057 21.2742 51.1701 21.2742 55.8294C21.2742 56.7498 21.3403 57.6549 21.468 58.5402L21.4951 58.7276L21.6827 58.7524C22.4969 58.8599 23.3273 58.9154 24.1706 58.9154C28.8299 58.9154 33.0943 57.222 36.381 54.4173ZM23.5488 64.0075L23.1288 63.9967L23.3197 64.371C26.4321 70.4715 32.7753 74.65 40.0948 74.65C47.4167 74.65 53.7615 70.4689 56.8729 64.3652L57.0653 63.9877L56.6418 64.0018C56.3721 64.0108 56.1013 64.0154 55.8294 64.0154C49.8376 64.0154 44.3608 61.8127 40.1638 58.1725L40 58.0304L39.8362 58.1725C35.6392 61.8127 30.1624 64.0154 24.1706 64.0154C23.9627 64.0154 23.7554 64.0127 23.5488 64.0075ZM15.8304 56.9711L16.2068 57.1575L16.1911 56.7378C16.1799 56.4364 16.1742 56.1335 16.1742 55.8294C16.1742 49.8375 18.3769 44.3608 22.0171 40.1638L22.1592 40L22.0171 39.8362C18.3769 35.6392 16.1742 30.1624 16.1742 24.1706C16.1742 23.9306 16.1777 23.6913 16.1848 23.453L16.197 23.0367L15.8239 23.2216C9.61758 26.2976 5.35 32.6976 5.35 40.0948C5.35 47.4946 9.62056 53.8965 15.8304 56.9711ZM21.6555 21.4408L21.4661 21.4661L21.4408 21.6555C21.3309 22.4783 21.2742 23.3179 21.2742 24.1706C21.2742 28.8299 22.9676 33.0943 25.7722 36.3809L25.9219 36.5563L26.1087 36.4214C28.1426 34.9531 30.4162 33.7968 32.8596 33.0224L32.9832 32.9832L33.0224 32.8596C33.7968 30.4162 34.9532 28.1425 36.4214 26.1087L36.5563 25.9218L36.381 25.7722C33.0943 22.9676 28.8299 21.2742 24.1706 21.2742C23.3179 21.2742 22.4784 21.3309 21.6555 21.4408ZM40.2129 30.2481L40 29.9019L39.7871 30.2481C39.525 30.6741 39.2795 31.1113 39.0513 31.5589L38.8589 31.9364L39.2824 31.9223C39.5521 31.9133 39.8229 31.9088 40.0948 31.9088C40.3027 31.9088 40.51 31.9114 40.7167 31.9167L41.1367 31.9274L40.9457 31.5531C40.7184 31.1076 40.4738 30.6722 40.2129 30.2481ZM43.619 25.7722L43.4437 25.9218L43.5786 26.1087C45.0338 28.1245 46.1826 30.3759 46.9569 32.7946L46.9967 32.9191L47.1217 32.9574C49.6442 33.7315 51.9894 34.9115 54.0809 36.4214L54.2678 36.5563L54.4174 36.3809C57.222 33.0943 58.9154 28.8299 58.9154 24.1706C58.9154 23.3273 58.86 22.4968 58.7524 21.6827L58.7276 21.495L58.5403 21.468C57.6549 21.3403 56.7498 21.2742 55.8294 21.2742C51.1701 21.2742 46.9057 22.9676 43.619 25.7722ZM48.435 38.953L48.0586 38.7666L48.0743 39.1864C48.0855 39.4878 48.0912 39.7906 48.0912 40.0948C48.0912 40.3348 48.0877 40.574 48.0807 40.8124L48.0684 41.2287L48.4416 41.0437C48.9553 40.7891 49.4557 40.5117 49.9415 40.2129L50.2877 40L49.9415 39.787C49.4537 39.487 48.9511 39.2085 48.435 38.953ZM39.8362 22.0171L40 22.1592L40.1638 22.0171C44.3608 18.3769 49.8376 16.1742 55.8294 16.1742C56.1336 16.1742 56.4364 16.1798 56.7378 16.1911L57.1575 16.2068L56.9712 15.8303C53.8965 9.62054 47.4946 5.35 40.0948 5.35C32.6976 5.35 26.2976 9.61755 23.2217 15.8238L23.0368 16.197L23.4531 16.1847C23.6914 16.1777 23.9306 16.1742 24.1706 16.1742C30.1624 16.1742 35.6392 18.3769 39.8362 22.0171ZM31.5532 40.9457L31.9274 41.1367L31.9167 40.7167C31.9114 40.51 31.9088 40.3027 31.9088 40.0948C31.9088 39.8229 31.9133 39.5521 31.9223 39.2824L31.9364 38.8589L31.5589 39.0513C31.1113 39.2795 30.6741 39.525 30.2481 39.787L29.9019 40L30.2481 40.2129C30.6723 40.4738 31.1076 40.7184 31.5532 40.9457ZM64.371 23.3197L63.9968 23.1287L64.0075 23.5487C64.0128 23.7554 64.0154 23.9627 64.0154 24.1706C64.0154 30.1624 61.8127 35.6392 58.1725 39.8362L58.0305 40L58.1725 40.1638C61.8127 44.3608 64.0154 49.8375 64.0154 55.8294C64.0154 56.1013 64.0109 56.3721 64.0019 56.6418L63.9878 57.0653L64.3653 56.8728C70.4689 53.7614 74.65 47.4166 74.65 40.0948C74.65 32.7752 70.4716 26.4321 64.371 23.3197Z" fill="black" stroke="#8D7DFF" stroke-width="0.5"/>
</svg>
