<svg width="1296" height="258" viewBox="0 0 1296 258" fill="none" xmlns="http://www.w3.org/2000/svg">
<path d="M363.556 247.945H310.611L391.284 13.3993H454.955L535.514 247.945H482.569L424.033 66.9966H422.207L363.556 247.945ZM360.247 155.753H485.308V194.462H360.247V155.753Z" fill="black"/>
<path d="M603.35 72.0357L635.528 133.535L668.505 72.0357H718.369L667.592 159.99L719.738 247.945H670.102L635.528 187.132L601.524 247.945H551.318L603.35 159.99L553.144 72.0357H603.35Z" fill="black"/>
<path d="M747.238 247.945V72.0357H795.847V247.945H747.238ZM771.656 49.3599C764.43 49.3599 758.23 46.9549 753.057 42.1449C747.96 37.2585 745.412 31.4178 745.412 24.6227C745.412 17.9039 747.96 12.1396 753.057 7.32956C758.23 2.44319 764.43 0 771.656 0C778.883 0 785.045 2.44319 790.142 7.32956C795.314 12.1396 797.901 17.9039 797.901 24.6227C797.901 31.4178 795.314 37.2585 790.142 42.1449C785.045 46.9549 778.883 49.3599 771.656 49.3599Z" fill="black"/>
<path d="M834.785 247.945V72.0357H881.112V103.072H883.166C886.818 92.7646 892.903 84.6334 901.423 78.6781C909.943 72.7228 920.137 69.7452 932.004 69.7452C944.023 69.7452 954.254 72.761 962.698 78.7926C971.142 84.7479 976.771 92.8409 979.586 103.072H981.412C984.987 92.9936 991.453 84.9388 1000.81 78.9071C1010.24 72.7992 1021.39 69.7452 1034.24 69.7452C1050.6 69.7452 1063.87 74.9752 1074.07 85.435C1084.34 95.8185 1089.47 110.554 1089.47 129.641V247.945H1040.97V139.261C1040.97 129.489 1038.39 122.159 1033.22 117.273C1028.04 112.386 1021.58 109.943 1013.82 109.943C1004.99 109.943 998.109 112.768 993.164 118.418C988.22 123.991 985.748 131.359 985.748 140.521V247.945H938.622V138.231C938.622 129.603 936.15 122.732 931.205 117.616C926.336 112.501 919.909 109.943 911.921 109.943C906.52 109.943 901.652 111.317 897.316 114.066C893.056 116.738 889.67 120.518 887.16 125.404C884.65 130.214 883.395 135.864 883.395 142.354V247.945H834.785Z" fill="black"/>
<path d="M1207.06 251.381C1189.33 251.381 1174 247.601 1161.07 240.043C1148.22 232.408 1138.29 221.795 1131.29 208.205C1124.29 194.538 1120.79 178.696 1120.79 160.677C1120.79 142.506 1124.29 126.626 1131.29 113.035C1138.29 99.3688 1148.22 88.7562 1161.07 81.1976C1174 73.5627 1189.33 69.7452 1207.06 69.7452C1224.78 69.7452 1240.07 73.5627 1252.93 81.1976C1265.86 88.7562 1275.82 99.3688 1282.82 113.035C1289.82 126.626 1293.32 142.506 1293.32 160.677C1293.32 178.696 1289.82 194.538 1282.82 208.205C1275.82 221.795 1265.86 232.408 1252.93 240.043C1240.07 247.601 1224.78 251.381 1207.06 251.381ZM1207.28 213.588C1215.35 213.588 1222.08 211.297 1227.48 206.716C1232.88 202.059 1236.95 195.722 1239.69 187.705C1242.51 179.688 1243.91 170.565 1243.91 160.334C1243.91 150.103 1242.51 140.979 1239.69 132.963C1236.95 124.946 1232.88 118.609 1227.48 113.952C1222.08 109.294 1215.35 106.966 1207.28 106.966C1199.14 106.966 1192.3 109.294 1186.75 113.952C1181.27 118.609 1177.12 124.946 1174.31 132.963C1171.57 140.979 1170.2 150.103 1170.2 160.334C1170.2 170.565 1171.57 179.688 1174.31 187.705C1177.12 195.722 1181.27 202.059 1186.75 206.716C1192.3 211.297 1199.14 213.588 1207.28 213.588Z" fill="black"/>
<path fill-rule="evenodd" clip-rule="evenodd" d="M0 0C0 71.2448 57.5443 129 128.529 129C57.5443 129 0 186.756 0 258H15.4235C15.4235 195.305 66.0625 144.48 128.529 144.48C190.995 144.48 241.634 195.305 241.634 258H257.058C257.058 186.756 199.513 129 128.529 129C199.513 129 257.058 71.2448 257.058 0H241.634C241.634 62.6954 190.995 113.52 128.529 113.52C66.0625 113.52 15.4235 62.6954 15.4235 0H0ZM30.8469 0C30.8469 54.1459 74.5807 98.04 128.529 98.04C182.478 98.04 226.211 54.1459 226.211 0H210.787C210.787 45.5966 173.959 82.56 128.529 82.56C83.0988 82.56 46.2704 45.5966 46.2704 0H30.8469ZM61.6939 0C61.6939 37.0473 91.617 67.08 128.529 67.08C165.441 67.08 195.364 37.0473 195.364 0H179.94C179.94 28.4979 156.922 51.6 128.529 51.6C100.135 51.6 77.1174 28.4979 77.1174 0H61.6939ZM128.529 159.96C182.478 159.96 226.211 203.854 226.211 258H210.787C210.787 212.404 173.959 175.44 128.529 175.44C83.0988 175.44 46.2704 212.404 46.2704 258H30.8469C30.8469 203.854 74.5807 159.96 128.529 159.96ZM128.529 190.92C165.441 190.92 195.364 220.952 195.364 258H179.94C179.94 229.503 156.922 206.4 128.529 206.4C100.135 206.4 77.1174 229.503 77.1174 258H61.6939C61.6939 220.952 91.617 190.92 128.529 190.92Z" fill="black"/>
</svg>
