<svg width="24" height="24" viewBox="0 0 24 24" fill="none" xmlns="http://www.w3.org/2000/svg">
<path d="M2.3999 3.5999C2.3999 2.93716 2.93716 2.3999 3.5999 2.3999H6.18335C6.76996 2.3999 7.27059 2.824 7.36702 3.40262L8.2542 8.72567C8.3408 9.24531 8.07837 9.76067 7.60718 9.99626L5.74941 10.9251C7.08897 14.2539 9.74592 16.9108 13.0747 18.2504L14.0035 16.3926C14.2391 15.9214 14.7545 15.659 15.2741 15.7456L20.5972 16.6328C21.1758 16.7292 21.5999 17.2298 21.5999 17.8165V20.3999C21.5999 21.0626 21.0626 21.5999 20.3999 21.5999H17.9999C9.38426 21.5999 2.3999 14.6155 2.3999 5.9999V3.5999Z" fill="black"/>
</svg>
