<svg width="17" height="18" viewBox="0 0 17 18" fill="none" xmlns="http://www.w3.org/2000/svg">
<path d="M9.51569 0.744668C10.1182 0.742356 10.7208 0.748412 11.3231 0.762833L11.4833 0.768613C11.6683 0.775219 11.8507 0.783476 12.0712 0.793384C12.9497 0.834668 13.5492 0.973384 14.0751 1.17733C14.6201 1.38705 15.0792 1.67109 15.5382 2.13017C15.958 2.54269 16.2829 3.04168 16.4903 3.59246C16.6942 4.11842 16.8329 4.7187 16.8742 5.59723C16.8841 5.81686 16.8924 6.00016 16.899 6.18511L16.9039 6.3453C16.9186 6.94738 16.9249 7.54964 16.9229 8.1519L16.9237 8.76786V9.84951C16.9258 10.452 16.9195 11.0546 16.9048 11.6569L16.8998 11.8171C16.8932 12.0021 16.8849 12.1846 16.875 12.405C16.8337 13.2835 16.6934 13.883 16.4903 14.4089C16.2836 14.9603 15.9586 15.4597 15.5382 15.8721C15.1254 16.2918 14.6261 16.6166 14.0751 16.8241C13.5492 17.028 12.9497 17.1667 12.0712 17.208C11.8507 17.2179 11.6683 17.2262 11.4833 17.2328L11.3231 17.2378C10.7208 17.2524 10.1182 17.2588 9.51569 17.2567L8.89973 17.2576H7.8189C7.21637 17.2596 6.61384 17.2533 6.01148 17.2386L5.85129 17.2336C5.65528 17.2265 5.45932 17.2183 5.26341 17.2089C4.38488 17.1676 3.78543 17.0272 3.25864 16.8241C2.70765 16.6171 2.20856 16.2922 1.79635 15.8721C1.37611 15.4595 1.05094 14.9601 0.843508 14.4089C0.639563 13.883 0.500848 13.2835 0.459563 12.405C0.450368 12.2091 0.442111 12.0131 0.434793 11.8171L0.430665 11.6569C0.415442 11.0546 0.40856 10.4521 0.410022 9.84951V8.1519C0.407718 7.54964 0.413774 6.94739 0.428187 6.3453L0.433967 6.18511C0.440573 6.00016 0.44883 5.81686 0.458738 5.59723C0.500022 4.71787 0.638737 4.11925 0.842682 3.59246C1.05024 3.04141 1.37605 2.54255 1.79718 2.131C2.20911 1.71052 2.70788 1.38505 3.25864 1.17733C3.78543 0.973384 4.38405 0.834668 5.26341 0.793384L5.85129 0.768613L6.01148 0.764485C6.61355 0.74927 7.21581 0.742388 7.81808 0.743843L9.51569 0.744668ZM8.66688 4.8731C8.11987 4.86536 7.57678 4.96642 7.06916 5.1704C6.56155 5.37438 6.09953 5.67722 5.70997 6.06131C5.32041 6.4454 5.01108 6.90308 4.79994 7.40776C4.5888 7.91244 4.48007 8.45405 4.48007 9.00112C4.48007 9.54818 4.5888 10.0898 4.79994 10.5945C5.01108 11.0992 5.32041 11.5568 5.70997 11.9409C6.09953 12.325 6.56155 12.6279 7.06916 12.8318C7.57678 13.0358 8.11987 13.1369 8.66688 13.1291C9.76181 13.1291 10.8119 12.6942 11.5861 11.9199C12.3604 11.1457 12.7953 10.0956 12.7953 9.0007C12.7953 7.90578 12.3604 6.85569 11.5861 6.08146C10.8119 5.30723 9.76181 4.8731 8.66688 4.8731ZM8.66688 6.52447C8.99593 6.51841 9.32288 6.57797 9.62864 6.69969C9.9344 6.8214 10.2128 7.00283 10.4477 7.23336C10.6826 7.46389 10.8691 7.73892 10.9965 8.04237C11.1239 8.34581 11.1895 8.6716 11.1896 9.0007C11.1896 9.32979 11.1241 9.6556 10.9968 9.95909C10.8696 10.2626 10.6831 10.5377 10.4483 10.7683C10.2135 10.9989 9.93513 11.1804 9.62941 11.3022C9.32369 11.424 8.99675 11.4837 8.66771 11.4778C8.01075 11.4778 7.3807 11.2168 6.91617 10.7523C6.45163 10.2877 6.19065 9.65766 6.19065 9.0007C6.19065 8.34375 6.45163 7.7137 6.91617 7.24916C7.3807 6.78462 8.01075 6.52365 8.66771 6.52365L8.66688 6.52447ZM13.0017 3.63457C12.7354 3.64523 12.4834 3.75855 12.2988 3.95078C12.1141 4.14302 12.0109 4.39927 12.0109 4.66585C12.0109 4.93244 12.1141 5.18868 12.2988 5.38092C12.4834 5.57316 12.7354 5.68647 13.0017 5.69713C13.2755 5.69713 13.538 5.58839 13.7315 5.39484C13.9251 5.20128 14.0338 4.93876 14.0338 4.66503C14.0338 4.39129 13.9251 4.12877 13.7315 3.93522C13.538 3.74166 13.2755 3.63292 13.0017 3.63292V3.63457Z" fill="#FDFDE1"/>
</svg>
