<svg width="18" height="17" viewBox="0 0 18 17" fill="none" xmlns="http://www.w3.org/2000/svg">
<path d="M4.19651 2.4714C4.19628 2.9294 4.01413 3.36855 3.69011 3.69225C3.36609 4.01594 2.92676 4.19766 2.46876 4.19743C2.01076 4.1972 1.57161 4.01504 1.24792 3.69102C0.924228 3.36701 0.742508 2.92768 0.742737 2.46968C0.742966 2.01168 0.925125 1.57253 1.24914 1.24884C1.57316 0.925143 2.01249 0.743424 2.47049 0.743653C2.92849 0.743882 3.36764 0.926041 3.69133 1.25006C4.01502 1.57407 4.19674 2.0134 4.19651 2.4714ZM4.24832 5.47619H0.794544V16.2865H4.24832V5.47619ZM9.70529 5.47619H6.26878V16.2865H9.67075V10.6137C9.67075 7.45348 13.7894 7.15991 13.7894 10.6137V16.2865H17.2V9.4394C17.2 4.11195 11.1041 4.31054 9.67075 6.92678L9.70529 5.47619Z" fill="#FDFDE1"/>
</svg>
