<svg width="19" height="16" viewBox="0 0 19 16" fill="none" xmlns="http://www.w3.org/2000/svg">
<path d="M18.7975 2.40434C18.1215 2.70478 17.408 2.89256 16.6569 3.00522C17.408 2.55456 18.0088 1.84101 18.2717 0.977242C17.5582 1.39035 16.7695 1.69079 15.9058 1.87857C15.2298 1.16502 14.2533 0.714355 13.2018 0.714355C11.1738 0.714355 9.52136 2.36679 9.52136 4.39477C9.52136 4.69521 9.55892 4.9581 9.63403 5.22098C6.59206 5.07076 3.85052 3.60611 2.01032 1.35279C1.70988 1.91612 1.5221 2.51701 1.5221 3.193C1.5221 4.46988 2.16054 5.59653 3.17453 6.27253C2.57365 6.23497 2.01032 6.08475 1.48455 5.82187V5.85942C1.48455 7.66207 2.76142 9.16428 4.45141 9.50228C4.15097 9.57739 3.81297 9.61494 3.47497 9.61494C3.24964 9.61494 2.98675 9.57739 2.76142 9.53983C3.24964 11.0045 4.60163 12.0936 6.2165 12.0936C4.93963 13.07 3.36231 13.6709 1.63477 13.6709C1.33432 13.6709 1.03388 13.6709 0.770996 13.6334C2.42343 14.6849 4.33874 15.2858 6.44184 15.2858C13.2393 15.2858 16.9573 9.6525 16.9573 4.77032C16.9573 4.6201 16.9573 4.43232 16.9573 4.2821C17.6708 3.79388 18.3093 3.15545 18.7975 2.40434Z" fill="#FDFDE1"/>
</svg>
