<svg width="75" height="70" viewBox="0 0 75 70" fill="none" xmlns="http://www.w3.org/2000/svg">
<path d="M64.9873 47.8025C65.1935 47.2684 65.3135 46.6966 65.3253 46.1099C66.4069 30.9563 66.6086 17.7535 65.9412 5.80299C65.9796 2.95193 63.6719 0.726399 60.9751 0.726399C60.9741 0.726399 60.9741 0.726399 60.973 0.726399C44.2656 0.0739879 23.0773 -0.514042 7.45154 0.725328C6.55829 0.725328 5.73091 0.979841 5.00445 1.39048C3.3192 1.6 1.97252 3.24517 1.32356 4.706C0.469485 6.6287 0.408992 8.79619 0.362181 10.8994C0.140865 20.8495 0.24884 30.7684 0.027457 40.7185C-0.230233 52.3034 1.13663 52.9928 12.322 53.5049C26.5593 54.1568 40.8204 53.596 55.0614 53.0171C55.1514 56.8593 55.2637 60.7018 55.4109 64.5267C55.4216 64.8036 55.7563 65.14 55.9646 65.3199C56.2793 65.8141 56.939 65.8146 57.2806 65.4172C58.3251 64.2007 59.1487 63.3519 61.0772 61.2451C62.4472 63.7221 63.9981 66.3333 65.382 68.8206C65.7788 69.5339 66.4536 69.8418 67.2686 69.8828C67.4721 69.9602 67.6552 70.0264 68.0433 69.9895C69.6593 69.8392 70.7839 69.1654 71.6852 67.809C72.0608 67.2543 72.0876 66.5246 71.7518 65.9484C70.1797 63.2636 68.6281 60.5939 66.9831 57.5625C69.3102 57.2317 71.0303 57.1198 74.1908 56.7878C74.9078 56.7125 75.1895 55.8128 74.6415 55.3424C71.5798 52.713 68.2932 50.1712 64.9873 47.8025ZM56.9405 42.4079C56.3822 42.0583 55.674 42.4705 55.6786 43.1118L55.6805 43.3195L55.0462 44.3909C54.8382 44.7424 54.909 44.5763 54.9974 49.5116C49.935 49.5692 30.9735 50.1937 7.45154 49.3698C5.60375 49.3698 4.10041 47.8622 4.09826 45.9435C3.40534 37.0464 3.26303 26.9539 3.66797 15.2844H64.6328C64.8851 29.7655 63.784 46.0067 63.5773 46.8299C61.5924 45.4387 59.079 43.7505 56.9405 42.4079ZM7.51699 2.37138C23.3906 1.11571 44.9715 1.75209 60.9408 2.37353C62.7532 2.37353 64.3187 3.81764 64.2941 5.83733C64.4355 8.37595 64.5292 10.9821 64.5922 13.6362H3.72806C3.82698 11.0741 3.94985 8.44242 4.10041 5.72573C4.10041 3.87687 5.60375 2.37353 7.51699 2.37138ZM65.5732 56.1085C65.0112 56.198 64.7111 56.8135 64.9765 57.3103C66.8426 60.802 68.5734 63.783 70.3289 66.7811L71.0403 66.3647L70.316 66.8916C69.5896 67.985 68.8492 68.2597 67.7911 68.3048C67.7095 68.1583 62.6727 58.8862 62.5751 58.7042C62.2908 58.2298 61.6133 58.1583 61.2423 58.5916C60.1104 59.9099 58.7737 61.3073 57.4631 62.7346C57.4516 61.5723 57.3415 44.7675 57.3407 44.6162C62.1824 47.7376 67.5892 51.598 72.0887 55.3434C69.6268 55.5802 67.9492 55.7286 65.5732 56.1085Z" fill="black"/>
<path d="M8.55448 10.6696C9.92071 10.4137 10.5259 8.98066 9.75844 7.82601C9.39789 7.28304 8.82167 6.95898 8.2154 6.95898C8.10702 7.01156 7.98147 6.98474 7.87739 7.03088C7.41893 6.99307 6.62047 7.50488 6.40946 8.4473C6.10866 9.80087 7.17721 10.9147 8.55448 10.6696Z" fill="black"/>
<path d="M14.7985 10.5894C16.3432 10.5894 17.25 9.01616 16.3781 7.7083C15.7552 6.77394 14.7229 6.81452 14.8329 6.84449C14.7148 6.84449 14.6022 6.87025 14.5002 6.91531C14.3876 6.90566 14.2738 6.92604 14.1633 6.96897C12.3515 7.65868 12.6782 10.5894 14.7985 10.5894Z" fill="black"/>
<path d="M22.2086 10.6982C23.5753 10.4445 24.178 9.00948 23.4104 7.85465C22.8868 7.06377 21.9826 6.86053 21.5325 7.05952C21.4231 7.05201 21.3061 7.07025 21.1956 7.1121C19.2179 7.86874 19.8413 11.1396 22.2086 10.6982Z" fill="black"/>
<path d="M33.0185 8.52838H33.0282L55.7435 8.26441C56.1985 8.25905 56.5633 7.88563 56.5579 7.43065C56.5526 6.97568 56.1963 6.65055 55.7242 6.61621L33.0088 6.88018C32.5539 6.88555 32.189 7.25897 32.1944 7.71394C32.1998 8.16569 32.5678 8.52838 33.0185 8.52838Z" fill="black"/>
<path d="M23.4303 20.8105H10.3617C8.40657 20.8105 6.81631 22.2259 6.81631 23.9664V34.3277C6.81631 36.0446 8.38511 37.4599 10.3134 37.4836C27.064 37.6851 22.1606 37.637 23.0837 37.637C24.9852 37.637 26.57 36.2732 26.628 34.5745L26.9746 24.0597C27.0003 23.2678 26.6956 22.5027 26.1172 21.9051C25.4444 21.2097 24.4647 20.8105 23.4303 20.8105ZM24.9798 34.5198C24.953 35.3428 24.0634 35.9791 23.0547 35.9888L10.3327 35.8354C9.30257 35.8225 8.46452 35.1465 8.46452 34.3277V23.9664C8.46452 23.1348 9.31544 22.4587 10.3617 22.4587H23.4303C24.0205 22.4587 24.5688 22.6744 24.9336 23.0521C25.1204 23.2453 25.3414 23.5683 25.3264 24.0061L24.9798 34.5198Z" fill="black"/>
<path d="M54.7626 23.5371H35.7665C35.3115 23.5371 34.9424 23.9062 34.9424 24.3612C34.9424 24.8162 35.3115 25.1853 35.7665 25.1853H54.7626C55.2176 25.1853 55.5867 24.8162 55.5867 24.3612C55.5867 23.9062 55.2176 23.5371 54.7626 23.5371Z" fill="black"/>
<path d="M54.4242 32.8641H31.461C31.006 32.8641 30.6369 33.2333 30.6369 33.6882C30.6369 34.1432 31.006 34.5123 31.461 34.5123H54.4242C54.8792 34.5123 55.2483 34.1432 55.2483 33.6882C55.2483 33.2333 54.8792 32.8641 54.4242 32.8641Z" fill="black"/>
<path d="M48.1104 41.1877H36.6266C36.1716 41.1877 35.8025 41.5569 35.8025 42.0118C35.8025 42.4668 36.1716 42.8359 36.6266 42.8359H48.1104C48.5653 42.8359 48.9345 42.4668 48.9345 42.0118C48.9345 41.5569 48.5653 41.1877 48.1104 41.1877Z" fill="black"/>
</svg>
