<svg width="64" height="70" viewBox="0 0 64 70" fill="none" xmlns="http://www.w3.org/2000/svg">
<path d="M44.9159 62.1467C45.5075 65.8563 49.4823 68.0182 52.9192 66.4934C56.5457 67.6176 60.0169 68.8754 63.6434 69.9996C63.3446 68.8152 63.0459 67.6305 62.7472 66.4462C58.9425 65.3419 55.0727 64.2738 51.2651 63.1713C52.5872 58.5278 50.8752 49.0752 49.7178 46.2558C52.5629 47.8462 53.6918 48.2904 57.8885 49.0337C58.3258 49.1106 58.7333 48.8176 58.8085 48.3907C58.885 47.9586 58.5971 47.5472 58.1655 47.4707C53.4979 46.6441 52.9441 46.2645 48.7395 43.8785C48.5235 43.756 48.2785 43.7568 48.0636 43.8405C47.4147 43.1986 46.6643 42.7365 45.9423 42.8221C44.4453 42.9845 44.1736 45.3509 43.9834 47.0267C42.6976 46.7345 41.5808 46.4643 40.432 46.1878C36.1654 45.1628 34.6155 46.4843 29.6674 43.2676C29.0218 42.848 22.9323 36.7831 19.6724 39.4335C17.0798 41.546 20.4706 45.7083 23.5664 48.0392C24.8586 49.0109 26.3014 50.1232 27.5958 51.6451C27.2352 51.9488 25.7419 52.4284 22.8495 51.6221C20.7182 51.0286 18.4432 50.6362 16.3769 49.9423L4.14694 45.8415C1.1759 44.844 -0.197827 46.4062 0.0229202 48.0578C0.147881 48.9872 0.800192 49.8782 1.44564 50.5801C10.0321 62.2876 26.7958 67.9821 44.9159 62.1467ZM50.318 59.711C50.2765 60.291 49.7787 62.9389 49.551 63.3228C49.0378 63.0567 48.0388 61.9533 47.8424 60.2387C48.673 60.0712 49.4985 59.8955 50.318 59.711ZM46.1759 44.4119C46.6479 44.5388 47.9195 45.6689 48.5916 47.9493C47.6545 47.7999 46.6252 47.6004 45.5708 47.3761C45.5391 47.1586 45.8693 44.8245 46.1759 44.4119ZM3.64249 47.3466L15.8719 51.4474C18.0466 52.1777 20.2548 52.5488 22.4236 53.152C27.5527 54.578 33.1365 53.2536 24.521 46.7698C22.4565 45.2171 19.2608 41.821 20.6342 40.6926C23.6252 39.2639 27.0937 43.4889 28.8022 44.599C34.1249 48.06 36.0219 46.7592 40.0604 47.7322C42.6906 48.3652 46.3249 49.2452 48.983 49.6177C49.0005 49.6203 49.0164 49.6136 49.0337 49.6146C49.6729 52.3524 49.9625 55.1737 50.2241 58.1056C33.2762 61.9672 14.6348 62.3632 2.64391 49.5767C2.04495 48.938 1.66402 48.3482 1.59676 47.847C1.46349 46.8522 2.66853 47.0211 3.64249 47.3466Z" fill="black"/>
<path d="M15.561 0.29942C15.3328 0.0215566 14.9011 -0.0214773 14.7195 0.00791127C10.7769 0.683964 6.01302 3.5515 4.95139 7.53235C4.92305 7.63849 4.60194 9.5991 4.59476 9.70497C4.57363 9.92722 4.89117 10.4144 5.01819 10.5836C8.66885 15.1292 11.9164 19.7427 15.6535 24.2827C14.9807 25.0555 17.6863 21.9062 11.0508 29.6943C10.927 29.8398 10.8758 30.0173 10.8725 30.1946C10.8716 30.2052 10.8654 30.2137 10.8648 30.2246C10.8265 30.9864 9.92616 37.6539 9.40465 39.804C9.33022 40.1121 9.44548 40.4346 9.69874 40.6258C9.95649 40.8192 10.3009 40.8352 10.5691 40.6806C12.1479 39.7819 17.4921 37.2872 19.042 36.5178C19.1728 36.4532 19.2664 36.3509 19.3411 36.2372C19.3437 36.2343 19.3475 36.2336 19.3501 36.2305C20.2917 35.1324 21.3774 33.8614 22.5529 32.46C25.4279 35.8035 28.306 39.1538 30.9204 42.4666C31.5468 43.2251 32.9597 43.2887 33.9451 43.2887C36.8549 43.2887 41.9223 40.3656 43.9226 35.6836C44.3323 34.7307 43.8897 34.6641 43.781 34.4142C42.0905 32.3506 32.5314 20.8053 32.4411 20.6962C42.1938 9.14022 38.83 13.1259 39.5577 12.2637C41.2677 10.2654 40.1226 6.77681 38.0082 5.37912C36.4691 4.31841 33.2208 3.64838 31.8627 5.19822C31.7697 5.30761 25.2351 12.9956 25.6455 12.5128C21.6381 7.67086 18.3289 3.67523 15.561 0.29942ZM14.616 1.6492C15.6888 2.95685 16.7838 4.27665 17.868 5.58999C17.8605 5.59568 17.8512 5.59723 17.8439 5.60343L15.4953 7.63262C15.163 7.91896 15.1263 8.42032 15.4126 8.75214C15.6998 9.08466 16.2026 9.1202 16.5321 8.8338L18.8756 6.81082C19.7333 7.84867 20.5806 8.88032 21.4422 9.92076L19.1097 11.9226C18.7769 12.2079 18.7386 12.7092 19.0239 13.0421C19.3086 13.3736 19.8085 13.4143 20.1434 13.1279L22.4541 11.1457L24.601 13.7406C24.5875 13.7584 24.5721 13.7747 24.56 13.7936L17.9327 21.609C9.93279 11.7498 7.37403 8.65001 6.57484 7.67139C7.46804 4.97364 10.8854 2.41338 14.616 1.6492ZM15.0353 36.6838C14.8891 36.3309 12.749 34.615 11.9108 34.56C12.0687 33.4704 12.2078 32.4411 12.3057 31.6537C12.774 31.6485 13.2397 31.663 13.6016 31.8279C13.8832 31.956 14.0983 32.2372 14.0626 32.4295C13.9665 32.9478 14.3944 33.4056 14.8859 33.3681C15.9749 33.3019 17.0548 33.9515 17.3584 35.571C16.5305 35.9692 15.9316 36.2543 15.0353 36.6838ZM36.0111 27.5033L33.8273 29.2746C33.4867 29.5506 33.435 30.0509 33.711 30.391C33.9856 30.7288 34.4856 30.7854 34.8279 30.5068L37.0225 28.7267C38.1694 30.1134 39.3192 31.502 40.462 32.8879L37.6159 35.1078C37.2701 35.3776 37.2086 35.8769 37.4784 36.2222C37.75 36.57 38.2477 36.6284 38.5927 36.3607L41.4743 34.1129C41.7797 34.4804 42.0824 34.8479 42.3835 35.2154C40.9127 38.5015 37.758 40.9654 34.2209 41.6247C30.9601 37.6502 28.6628 34.8349 24.6888 29.9305C25.2513 29.2631 27.5479 26.5115 31.4209 21.954L32.4181 23.1583C32.1291 23.2969 32.5975 22.9887 29.5126 25.547C29.1766 25.8281 29.1327 26.3295 29.4144 26.6655C29.6971 27.0021 30.1992 27.0439 30.5328 26.7626C33.6153 24.1426 33.1936 24.5795 33.3814 24.322C34.2611 25.3844 35.1335 26.4427 36.0111 27.5033ZM18.7364 34.5062C18.4106 33.4962 17.7309 32.6532 16.6958 32.163C17.7039 30.9895 17.1075 31.6755 34.0751 11.8523C35.4035 12.7183 35.7027 12.6991 36.6344 13.2607C34.4222 15.8565 21.5861 31.1749 18.7364 34.5062ZM30.8745 8.80331C31.5257 9.6153 32.1257 10.2944 32.8071 10.8917C30.0966 14.0551 15.4209 31.2117 15.3283 31.3193C14.7621 30.4246 13.8626 30.1233 12.8107 30.0765C18.8383 23.0059 22.6222 18.5339 30.8745 8.80331Z" fill="black"/>
</svg>
