<svg width="77" height="70" viewBox="0 0 77 70" fill="none" xmlns="http://www.w3.org/2000/svg">
<path d="M7.48124 55.256C8.26054 55.4369 9.55703 54.9965 10.1489 53.9393C10.688 52.9763 10.5551 51.8467 9.80261 50.9898C8.98565 50.061 7.70716 49.7301 6.62092 50.1649C5.61855 50.5676 5.04006 51.5078 5.11138 52.6192C5.18929 53.8364 5.94286 54.9382 7.48124 55.256ZM7.27358 51.7919C8.01276 51.4966 9.04554 52.3223 8.61996 53.0836C8.43455 53.4133 7.97301 53.6039 7.59477 53.5069C7.15206 53.3916 6.88621 52.9056 6.86053 52.5073C6.83771 52.1514 6.97635 51.9106 7.27358 51.7919Z" fill="black"/>
<path d="M67.163 19.7719C67.163 19.2881 66.7705 18.8956 66.2867 18.8956H46.9678C46.4841 18.8956 46.0916 19.2881 46.0916 19.7719C46.0916 20.2557 46.4841 20.6482 46.9678 20.6482H66.2867C66.7705 20.6482 67.163 20.2557 67.163 19.7719Z" fill="black"/>
<path d="M60.9963 29.7409C61.48 29.7409 61.8726 29.3484 61.8726 28.8646C61.8726 28.3808 61.48 27.9883 60.9963 27.9883H49.2747C48.7909 27.9883 48.3984 28.3808 48.3984 28.8646C48.3984 29.3484 48.7909 29.7409 49.2747 29.7409H60.9963Z" fill="black"/>
<path d="M58.7187 36.637C58.7187 36.1532 58.3262 35.7607 57.8425 35.7607H49.5462C49.0624 35.7607 48.6699 36.1532 48.6699 36.637C48.6699 37.1208 49.0624 37.5133 49.5462 37.5133H57.8425C58.3262 37.5133 58.7187 37.1208 58.7187 36.637Z" fill="black"/>
<path d="M73.1525 1.37389C73.1556 0.844712 72.7349 0.364904 72.1796 0.422868C59.2965 1.50682 44.456 1.37446 25.476 0.0018374C24.9579 -0.0305475 24.5445 0.369473 24.5364 0.861013C24.3668 11.4509 24.3081 15.8524 24.079 23.5362C22.068 25.7029 19.8047 28.0363 17.2067 30.6252C17.4391 24.9251 17.6966 19.236 17.9465 13.5992C17.5505 13.0991 17.146 12.5988 16.748 12.0988C16.6634 11.6079 16.2852 11.3674 15.9018 11.3674H0.876541C0.353336 11.3674 -0.0473646 11.8204 0.0048141 12.3327C1.37459 25.7098 0.676295 41.6884 0.000820591 57.141C-0.0168649 57.5518 0.252982 57.9203 0.649481 58.0264C3.59502 58.816 6.68085 59.216 9.74948 59.0405C14.1806 59.7465 18.6594 60.1655 23.1601 60.4197C23.1599 60.4228 23.1582 60.4254 23.1581 60.4282C23.0441 63.2216 22.9045 66.0818 22.7616 69.0326C22.7382 69.5163 23.1107 69.9271 23.5945 69.9499C23.7116 69.9593 46.9136 70.184 51.2473 69.5985C56.9364 69.7073 66.3437 67.8068 69.7917 63.25C77.2383 53.4066 76.0914 16.2114 75.7627 4.67596C74.8927 3.57518 74.0226 2.47439 73.1525 1.37389ZM2.31249 42.9578C2.46717 38.1068 2.56758 33.2912 2.53763 28.6128L14.4574 28.3903C14.4737 37.1356 14.385 38.1788 14.5417 43.2011C10.9365 42.2096 5.82763 44.6271 2.31249 42.9578ZM16.5126 51.3955C16.5785 47.6535 16.4391 50.7307 16.6921 43.9542C17.8291 45.1944 19.1115 46.2872 20.5177 47.2268C19.1283 48.7039 17.7906 50.1027 16.5126 51.3955ZM16.4323 53.9479C17.9283 52.4848 15.8466 54.4623 25.0982 46.0051C24.6587 49.5733 24.5353 53.1812 24.7587 56.7659C20.9166 56.8043 19.7318 56.9937 16.352 57.1313C16.3613 56.8033 16.3912 54.9733 16.4323 53.9479ZM48.4398 57.4263C45.2296 57.1484 42.0571 56.9773 38.9662 56.8743C38.9657 56.8672 38.9691 56.8609 38.9684 56.8535C38.5961 52.8563 38.465 48.7986 38.5757 44.7914C42.186 44.7235 45.5088 44.5657 48.583 44.3139L48.4398 57.4263ZM37.2091 56.8272C33.4799 56.7325 29.8853 56.7257 26.5109 56.7508C26.2549 52.7427 26.4286 48.701 27.0259 44.7278C28.9834 44.7616 31.87 44.8665 36.8232 44.815C36.7156 48.8063 36.8455 52.8454 37.2091 56.8272ZM30.8986 36.2219C30.8028 35.6945 31.0759 36.2889 22.8931 27.34C23.8329 26.3613 24.7391 25.406 25.5861 24.4901C28.2772 21.5999 30.7212 18.7987 32.8634 16.1516L42.2436 25.3184C38.2006 28.8775 34.4907 32.5176 30.8986 36.2219ZM21.6745 28.6028C29.8447 37.3149 29.3049 37.1392 29.9298 37.2282C27.0463 40.2278 25.3738 42.0417 21.7281 45.9381C19.8178 44.7024 18.154 43.156 16.7835 41.3356C16.883 38.6211 16.9891 35.9098 17.102 33.1948C18.6787 31.6415 19.9376 30.3864 21.6745 28.6028ZM14.9542 13.12C14.5947 17.8979 14.4794 22.5164 14.4611 26.6369L2.50739 26.8602C2.4435 22.0997 2.25395 17.4763 1.84297 13.12H14.9542ZM2.25473 44.8265C6.65826 46.3414 11.9879 43.6954 14.7474 45.1474C14.8386 51.4097 14.7377 51.2361 14.6057 56.9744C9.51708 57.2652 6.97236 57.7778 1.78307 56.5078C1.95244 52.6278 2.11931 48.7187 2.25473 44.8265ZM24.5551 68.2099C24.6801 65.6312 24.8043 63.0697 24.9091 60.5073C32.1899 60.855 39.5154 60.8333 46.7702 60.9919C47.5122 60.6898 48.4403 59.937 49.1333 59.249C49.8026 59.3113 50.1767 58.8638 50.1822 58.3927L50.3459 43.3668C50.3519 42.8491 49.9065 42.4369 49.3909 42.4848C43.4589 43.018 36.5699 43.1851 28.3836 43.0031C33.8777 37.9821 39.3714 32.9469 44.8544 28.0055C44.6325 27.3394 44.4105 26.6617 44.1885 25.9842C44.2312 25.8666 44.6979 25.2676 44.1468 24.7274L33.3974 14.2233C33.0409 13.8748 32.4332 13.885 32.099 14.3043C30.2641 16.6091 28.1741 19.0466 25.8898 21.5634C26.0628 15.524 26.1382 10.2738 26.2741 1.81603C44.452 3.1008 58.8447 3.23772 71.3917 2.24505C71.2256 21.7453 72.8995 40.9172 69.1531 58.3642C68.6174 60.8789 67.7051 62.6452 66.3639 63.7623C65.0919 64.8268 59.6884 59.5554 59.5715 59.4767C59.228 59.2462 58.7671 59.2895 58.4704 59.5816C56.7342 61.2928 55.4803 65.0978 53.7216 66.8772C53.0557 67.5448 52.699 67.6619 51.362 67.822C47.5276 68.3929 28.9626 68.2216 24.5551 68.2099Z" fill="black"/>
</svg>
