<svg width="30" height="28" viewBox="0 0 30 28" fill="none" xmlns="http://www.w3.org/2000/svg">
<path d="M28.4675 12.9939C30.0367 11.8559 29.2317 9.37482 27.2934 9.37482H20.8459C19.9786 9.37482 19.2102 8.81591 18.9431 7.99085L16.9582 1.85984C16.3613 0.0162268 13.7538 0.0139713 13.1537 1.85655L11.1557 7.9915C10.8872 8.81616 10.1177 9.37375 9.2504 9.37217L2.80666 9.36043C0.867981 9.3569 0.0587332 11.8373 1.62646 12.9777L6.83976 16.7703C7.54046 17.28 7.83321 18.183 7.56489 19.0069L5.56939 25.1343C4.96902 26.9778 7.07985 28.5115 8.64764 27.371L13.8588 23.5799C14.5602 23.0697 15.5106 23.0697 16.2119 23.5799L21.4378 27.3816C23.0042 28.5211 25.1138 26.9911 24.5171 25.1483L22.529 19.0073C22.2621 18.1831 22.5563 17.2809 23.2576 16.7723L28.4675 12.9939Z" fill="black"/>
</svg>
