<svg width="30" height="30" viewBox="0 0 30 30" fill="none" xmlns="http://www.w3.org/2000/svg">
<path d="M17.5 12.5H23.4549C25.3134 12.5 26.5221 14.4558 25.691 16.118L21.316 24.868C20.8925 25.715 20.0268 26.25 19.0799 26.25H14.0578C13.8534 26.25 13.6497 26.2249 13.4514 26.1754L8.75 25M17.5 12.5V6.25C17.5 4.86929 16.3807 3.75 15 3.75H14.8807C14.2562 3.75 13.75 4.25621 13.75 4.88066C13.75 5.77354 13.4857 6.64644 12.9904 7.38936L8.75 13.75V25M17.5 12.5H15M8.75 25H6.25C4.86929 25 3.75 23.8807 3.75 22.5V15C3.75 13.6193 4.86929 12.5 6.25 12.5H9.375" stroke="#111827" stroke-width="2" stroke-linecap="round" stroke-linejoin="round"/>
</svg>
