<svg width="34" height="34" viewBox="0 0 34 34" fill="none" xmlns="http://www.w3.org/2000/svg">
<path d="M2 5.33333C2 3.49238 3.49238 2 5.33333 2H10.7987C11.5161 2 12.153 2.45905 12.3799 3.13962L14.8762 10.6287C15.1385 11.4155 14.7823 12.2755 14.0404 12.6464L10.2783 14.5275C12.1154 18.602 15.398 21.8846 19.4725 23.7217L21.3536 19.9596C21.7245 19.2177 22.5845 18.8615 23.3713 19.1238L30.8604 21.6201C31.5409 21.847 32 22.4839 32 23.2013V28.6667C32 30.5076 30.5076 32 28.6667 32H27C13.1929 32 2 20.8071 2 7V5.33333Z" stroke="#FDFDE1" stroke-width="3" stroke-linecap="round" stroke-linejoin="round"/>
</svg>
