<svg width="24" height="24" viewBox="0 0 24 24" fill="none" xmlns="http://www.w3.org/2000/svg">
<path d="M0 1.50024C0 0.671817 0.671573 0.000244141 1.5 0.000244141H4.72931C5.46257 0.000244141 6.08835 0.530364 6.2089 1.25365L7.31787 7.90746C7.42613 8.557 7.09808 9.2012 6.5091 9.4957L4.18689 10.6568C5.86134 14.8177 9.18252 18.1389 13.3434 19.8134L14.5045 17.4911C14.799 16.9022 15.4432 16.5741 16.0928 16.6824L22.7466 17.7913C23.4699 17.9119 24 18.5377 24 19.2709V22.5002C24 23.3287 23.3284 24.0002 22.5 24.0002H19.5C8.73045 24.0002 0 15.2698 0 4.50024V1.50024Z" fill="#FDFDE1"/>
</svg>
