<svg width="24" height="25" viewBox="0 0 24 25" fill="none" xmlns="http://www.w3.org/2000/svg">
<path d="M5.75 6H3.25C1.86929 6 0.75 7.11929 0.75 8.5V16C0.75 17.3807 1.86929 18.5 3.25 18.5H5.75V23.5L10.75 18.5H15.75C16.4404 18.5 17.0654 18.2202 17.5178 17.7678M17.5178 17.7678L13.25 13.5H8.25C6.86929 13.5 5.75 12.3807 5.75 11V3.5C5.75 2.11929 6.86929 1 8.25 1H20.75C22.1307 1 23.25 2.11929 23.25 3.5V11C23.25 12.3807 22.1307 13.5 20.75 13.5H18.25V18.5L17.5178 17.7678Z" stroke="#0C0C0C" stroke-width="1.5" stroke-linecap="round" stroke-linejoin="round"/>
</svg>
