<svg width="30" height="35" viewBox="0 0 30 35" fill="none" xmlns="http://www.w3.org/2000/svg">
<path d="M24.4274 24.7614C22.6295 26.5594 18.5717 30.6171 16.4127 32.7761C15.6317 33.5572 14.3678 33.558 13.5868 32.777C11.4632 30.6533 7.49261 26.6828 5.57126 24.7614C0.364268 19.5544 0.364268 11.1122 5.57126 5.90524C10.7782 0.698252 19.2204 0.698252 24.4274 5.90524C29.6344 11.1122 29.6344 19.5544 24.4274 24.7614Z" stroke="#FDFDE1" stroke-width="3" stroke-linecap="round" stroke-linejoin="round"/>
<path d="M19.9993 15.3333C19.9993 18.0948 17.7608 20.3333 14.9993 20.3333C12.2379 20.3333 9.99935 18.0948 9.99935 15.3333C9.99935 12.5719 12.2379 10.3333 14.9993 10.3333C17.7608 10.3333 19.9993 12.5719 19.9993 15.3333Z" stroke="#FDFDE1" stroke-width="3" stroke-linecap="round" stroke-linejoin="round"/>
</svg>
