<svg width="24" height="24" viewBox="0 0 24 24" fill="none" xmlns="http://www.w3.org/2000/svg">
<path d="M9.5 9.5H3.54509C1.68663 9.5 0.477891 11.4558 1.30902 13.118L5.68402 21.868C6.1075 22.715 6.97315 23.25 7.92008 23.25H12.9422C13.1466 23.25 13.3503 23.2249 13.5486 23.1754L18.25 22M9.5 9.5V3.25C9.5 1.86929 10.6193 0.75 12 0.75H12.1193C12.7438 0.75 13.25 1.25621 13.25 1.88066C13.25 2.77354 13.5143 3.64644 14.0096 4.38936L18.25 10.75V22M9.5 9.5H12M18.25 22H20.75C22.1307 22 23.25 20.8807 23.25 19.5V12C23.25 10.6193 22.1307 9.5 20.75 9.5H17.625" stroke="#0C0C0C" stroke-width="1.5" stroke-linecap="round" stroke-linejoin="round"/>
</svg>
