<svg width="30" height="30" viewBox="0 0 30 30" fill="none" xmlns="http://www.w3.org/2000/svg">
<circle cx="15" cy="15" r="9" fill="black"/>
<path fill-rule="evenodd" clip-rule="evenodd" d="M27 15C27 21.6274 21.6274 27 15 27C8.37258 27 3 21.6274 3 15C3 8.37258 8.37258 3 15 3C21.6274 3 27 8.37258 27 15ZM15 10.5C14.4467 10.5 13.9614 10.7988 13.6998 11.2511C13.285 11.9682 12.3674 12.2132 11.6503 11.7984C10.9332 11.3836 10.6881 10.466 11.103 9.74891C11.8788 8.40777 13.3325 7.5 15 7.5C17.4853 7.5 19.5 9.51472 19.5 12C19.5 13.9593 18.2478 15.6262 16.5 16.2439V16.5C16.5 17.3284 15.8284 18 15 18C14.1716 18 13.5 17.3284 13.5 16.5V15C13.5 14.1716 14.1716 13.5 15 13.5C15.8284 13.5 16.5 12.8284 16.5 12C16.5 11.1716 15.8284 10.5 15 10.5ZM15 22.5C15.8284 22.5 16.5 21.8284 16.5 21C16.5 20.1716 15.8284 19.5 15 19.5C14.1716 19.5 13.5 20.1716 13.5 21C13.5 21.8284 14.1716 22.5 15 22.5Z" fill="#BFF747"/>
</svg>
